<svg width="1489" height="330" viewBox="0 0 1489 330" fill="none" xmlns="http://www.w3.org/2000/svg">
<path d="M258.416 461.025C282.699 448.375 293.749 415.159 293.749 389.636C293.749 381.768 292.79 374.472 290.937 367.948C284.056 343.944 277.902 323.452 272.443 305.374C257.853 256.968 249.02 227.761 249.02 203.483C249.02 183.264 255.008 165.934 270.392 141.681C286.471 116.358 301.756 97.7572 314.063 82.8421C333.351 59.4111 346.055 43.9482 346.055 22.7831C346.055 15.8609 344.632 8.39084 341.721 0.0244139L339.339 0.0244138C342.283 8.41574 343.706 15.8858 343.706 22.7831C343.706 43.4751 331.101 58.7637 312.045 81.9208C299.737 96.8857 284.387 115.511 268.275 140.934C252.725 165.461 246.671 182.99 246.671 203.483C246.671 227.96 255.504 257.242 270.127 305.748C275.586 323.825 281.74 344.293 288.621 368.297C290.441 374.696 291.367 381.867 291.367 389.611C291.367 414.71 280.615 447.305 257.026 459.58C246.605 464.984 234.794 465.88 221.858 462.22C196.053 454.899 173.291 420.661 153.176 390.433C141.035 372.181 129.555 354.925 118.902 346.061C87.7698 320.14 45.5548 326.365 0.0646215 336.873L0.0646214 338.69C45.0916 328.257 86.8103 321.958 117.181 347.206C127.636 355.896 139.016 373.053 151.092 391.205C171.372 421.707 194.399 456.269 221.031 463.838C234.827 467.748 247.366 466.801 258.416 461.025Z" fill="#2D5037"/>
<path d="M523.221 7.94262C625.251 11.4784 699.656 60.432 759.439 99.7742L763.673 102.563C770.059 107.12 787.13 117.652 807.741 116.831C820.28 116.333 831.661 111.651 841.52 102.936C847.442 97.7075 852.934 92.8768 858.194 88.2703C881.419 67.9269 899.747 51.8415 922.74 26.8916C931.144 17.7782 939.084 8.78924 946.561 0.0493141L945.37 0.0493141C937.992 8.66474 930.184 17.5043 921.913 26.4683C898.953 51.3933 880.625 67.4538 857.433 87.7972C852.173 92.4037 846.648 97.2343 840.759 102.463C831.098 111.029 819.982 115.611 807.708 116.109C787.461 116.93 770.654 106.547 764.335 102.04L760.067 99.2263C700.186 59.7846 625.648 10.7314 523.254 7.19562C512.336 6.82212 505.686 3.63491 503.403 0.0243947L502.212 0.0243946C504.363 3.90881 511.112 7.51932 523.221 7.94262Z" fill="#2D5037"/>
<path d="M522.162 25.3478C616.12 28.6097 687.118 75.3472 744.187 112.897L748.455 115.71C760.431 123.604 771.084 129.978 780.017 134.709C791.133 140.561 811.81 151.417 844.729 125.745C880.261 98.0561 912.881 68.1261 941.73 36.8267C953.508 24.053 964.095 11.7773 973.623 0.0493142L972.465 0.0493141C963.036 11.6528 952.549 23.7791 940.903 36.4034C912.087 67.678 879.467 97.5581 844.001 125.222C811.645 150.446 791.431 139.813 780.579 134.086C771.647 129.38 761.06 123.006 749.083 115.138L744.816 112.324C687.647 74.6998 616.484 27.8627 522.195 24.6008C478.458 23.0819 453.017 17.2304 442.099 6.19961C439.949 4.00841 438.758 1.9417 438.493 0.0243907L437.501 0.0243906C437.765 2.116 438.989 4.30721 441.305 6.64781C452.388 17.8778 478.094 23.804 522.162 25.3478Z" fill="#2D5037"/>
<path d="M1194.19 329.278C1219.57 324.448 1226.39 285.404 1234.23 240.186C1236.18 229.006 1238.16 217.452 1240.54 206.247C1250.93 156.671 1283.98 111.303 1315.98 67.4289C1331.99 45.4422 1348.33 23.0072 1361.8 0.0244141L1359.28 0.024414C1345.95 22.6835 1329.8 44.8695 1313.96 66.5823C1281.9 110.581 1248.72 156.098 1238.26 205.973C1235.91 217.228 1233.9 228.781 1231.94 239.962C1224.5 282.69 1217.49 323.028 1193.63 327.585C1175.04 331.121 1146.82 312.894 1107.38 271.859C1052.03 214.265 1026.26 165.959 1026.26 119.794C1026.26 93.5491 1034.93 67.5534 1051.97 42.479C1062.59 26.8667 1075.49 13.1467 1088.53 0.0493022L1085.65 0.0493021C1072.91 12.8977 1060.34 26.3936 1049.92 41.7071C1032.68 67.0305 1023.95 93.3001 1023.95 119.819C1023.95 166.357 1049.85 215.012 1105.5 272.904C1146.12 315.135 1174.31 333.063 1194.19 329.278Z" fill="#2D5037"/>
<path d="M671.995 6.47353C687.676 13.1716 701.902 21.8867 715.665 30.3029C735.515 42.4292 756.027 54.9789 781.237 61.7517C825.702 73.654 846.214 50.3226 867.983 25.5968C870.001 23.306 872.019 21.0152 874.07 18.7244C877.742 14.6408 881.183 10.8061 884.69 7.02134C886.41 5.15383 888.594 2.86302 891.34 0.0244141L890.116 0.024414C887.568 2.63892 885.484 4.83013 883.863 6.59804C880.356 10.3828 876.915 14.2424 873.243 18.326C871.192 20.6168 869.174 22.9076 867.156 25.1735C845.618 49.6254 825.305 72.7326 781.568 61.0296C756.524 54.3066 736.078 41.8067 716.294 29.7053C702.498 21.2642 688.239 12.5491 672.491 5.82612C667.76 3.80922 661.639 1.96661 655.122 0.0244037L652.442 0.0244036C653.104 0.223604 653.798 0.422805 654.46 0.622006C661.044 2.58911 667.264 4.45662 671.995 6.47353Z" fill="#2D5037"/>
<path d="M182.292 312.222C185.666 316.255 186.096 320.912 186.096 324.921C186.096 326.813 185.997 328.73 185.865 330.747C185.732 332.764 185.6 334.831 185.6 336.898C185.6 341.529 186.196 347.58 190.695 353.058C202.34 367.201 215.872 371.907 223.481 370.264C228.51 369.193 231.421 365.508 231.421 360.179C231.421 355.423 229.171 349.398 224.871 342.724C222.125 338.466 217.261 334.632 212.497 330.922C206.774 326.44 200.852 321.808 198.933 316.48C198.337 314.836 198.04 313.218 198.04 311.524C198.04 308.163 199.197 305.15 200.388 301.963C201.579 298.801 202.837 295.564 202.837 291.978C202.837 290.733 202.671 289.488 202.374 288.243C200.819 281.918 195.492 277.611 190.331 273.427C186.03 269.941 181.597 266.356 179.413 261.625C176.932 256.271 175.708 249 175.708 239.414C175.708 226.964 177.792 213.169 179.446 202.064C179.943 198.876 180.373 195.913 180.737 193.274C183.813 170.241 193.408 146.263 210.049 120.018C227.683 92.2294 244.026 72.3592 257.193 56.3733C264.373 47.6583 268.012 38.7191 268.012 29.8547C268.012 18.575 262.321 8.56514 253.554 0.0244134L252.33 0.0244134C261.23 8.51534 267.019 18.5501 267.019 29.8547C267.019 38.5946 263.446 47.3844 256.333 55.9998C243.166 71.9857 226.789 91.8808 209.156 119.719C192.448 146.039 182.821 170.092 179.744 193.199C179.38 195.839 178.95 198.802 178.454 201.989C176.767 213.094 174.716 226.939 174.716 239.414C174.716 249.075 175.94 256.421 178.454 261.849C180.704 266.729 185.236 270.39 189.603 273.925C194.897 278.208 199.892 282.267 201.414 288.367C201.712 289.563 201.844 290.733 201.844 291.953C201.844 295.439 200.62 298.651 199.429 301.739C198.238 304.826 197.014 308.038 197.014 311.524C197.014 313.267 197.312 314.961 197.94 316.679C199.958 322.182 205.947 326.888 211.736 331.445C216.401 335.105 221.264 338.915 223.911 343.073C228.113 349.647 230.362 355.573 230.362 360.204C230.362 365.259 227.815 368.571 223.15 369.567C215.872 371.135 202.837 366.504 191.456 352.684C187.056 347.356 186.493 341.454 186.493 336.898C186.493 334.856 186.626 332.789 186.758 330.797C186.89 328.855 186.99 326.863 186.99 324.946C186.99 320.812 186.526 316.031 183.019 311.848C179.182 307.242 169.455 303.731 160.026 300.344C154.336 298.303 148.976 296.36 145.271 294.319C114.437 277.287 81.2207 276.241 40.8585 279.926C26.9964 281.196 13.3329 283.313 0.000140094 285.852L0.00014006 286.624C13.366 284.06 27.0626 281.918 40.9578 280.648C81.0884 276.988 114.073 278.009 144.642 294.916C148.447 297.008 153.84 298.95 159.563 301.017C169.025 304.353 178.619 307.789 182.292 312.222Z" fill="#2D5037"/>
<path d="M744.847 67.3298C746.6 68.4503 748.387 69.5708 750.173 70.7162C775.217 86.7519 801.122 103.31 832.088 84.486C856.041 69.9194 875.792 47.9327 893.227 28.5106C896.833 24.5017 900.241 20.692 903.682 16.957C905.998 14.442 909.306 11.0556 913.111 7.09652C915.195 4.93022 917.511 2.56471 919.959 0.0249001L918.735 0.0249C916.452 2.39041 914.302 4.63142 912.317 6.64832C908.479 10.5825 905.204 13.9938 902.888 16.5088C899.447 20.2438 896.039 24.0535 892.4 28.0624C874.998 47.4098 855.28 69.3716 831.46 83.8635C801.122 102.314 775.548 85.9302 750.802 70.1186C749.015 68.9732 747.262 67.8527 745.475 66.7322C723.441 52.8131 693.931 35.0344 661.045 20.9659C641.096 12.4251 620.121 5.40331 598.616 -1.40463e-05L595.374 -1.41881e-05C617.871 5.45311 639.772 12.699 660.582 21.6133C693.335 35.6569 722.813 53.4107 744.847 67.3298Z" fill="#2D5037"/>
<path d="M1079.68 53.1363C1066.81 72.0603 1060.79 88.1458 1060.79 103.733C1060.79 120.068 1067.31 134.584 1074.85 151.392C1079.12 160.929 1083.99 171.735 1088.09 183.986C1090.17 190.211 1090.4 195.615 1090.4 199.15C1090.4 201.516 1090.27 203.807 1090.17 205.998C1090.07 208.089 1089.94 210.057 1089.94 211.999C1089.94 222.083 1093.12 230.126 1108.9 238.916C1119.55 244.842 1127.79 247.083 1135.03 249.025C1145.88 251.963 1154.45 254.279 1166.73 267.177C1169.87 270.489 1172.35 275.22 1174.73 279.827C1178.6 287.197 1181.91 293.571 1187.57 293.845C1192.14 294.069 1197.23 290.061 1203.62 281.221C1211.23 270.663 1212.25 255.574 1212.25 242.203C1212.25 236.252 1212.02 229.977 1211.79 223.926C1211.56 217.85 1211.29 211.551 1211.29 205.55C1211.29 192.129 1212.52 182.741 1215.29 175.072C1230.94 131.746 1260.52 91.1089 1286.66 55.2528C1300.39 36.503 1313.69 18.2513 1325.1 0.0244141L1323.28 0.024414C1311.97 18.0521 1298.8 36.1046 1285.23 54.7299C1259.06 90.6358 1229.42 131.323 1213.74 174.823C1210.93 182.592 1209.67 192.104 1209.67 205.624C1209.67 211.65 1209.9 217.95 1210.17 224.05C1210.4 230.101 1210.63 236.351 1210.63 242.277C1210.63 255.474 1209.64 270.365 1202.19 280.698C1196.34 288.816 1191.44 292.849 1187.7 292.675C1183.1 292.451 1179.8 286.126 1176.32 279.453C1173.87 274.797 1171.36 269.991 1168.12 266.555C1155.55 253.333 1146.31 250.843 1135.63 247.955C1128.48 246.012 1120.38 243.821 1109.92 237.994C1094.7 229.504 1091.63 221.785 1091.63 212.074C1091.63 210.156 1091.73 208.189 1091.86 206.122C1091.99 203.906 1092.09 201.615 1092.09 199.225C1092.09 195.615 1091.86 190.112 1089.74 183.762C1085.64 171.461 1080.78 160.63 1076.48 151.068C1068.97 134.36 1062.48 119.943 1062.48 103.808C1062.48 88.4197 1068.44 72.5085 1081.17 53.7588C1092.85 36.6275 1108.37 21.2144 1123.39 6.29923C1125.47 4.23252 1127.56 2.16581 1129.64 0.0742057L1127.56 0.0742056C1125.74 1.91681 1123.88 3.73452 1122.06 5.55222C1106.98 20.4425 1091.4 35.9054 1079.68 53.1363Z" fill="#2D5037"/>
<path d="M1109.43 64.6152C1096.89 83.0164 1090.81 101.044 1090.81 119.769C1090.81 130.252 1096.5 152.886 1105.99 172.607C1114.33 189.888 1128.16 210.505 1146.75 210.555C1168.65 210.604 1180.83 178.782 1188.1 159.758C1189.69 155.625 1191.05 152.039 1192.21 149.674C1208.62 115.611 1229.33 81.7963 1257.38 43.2759C1268.1 28.535 1278.56 14.1677 1287.95 0.0244141L1286.83 0.024414C1277.5 14.0432 1267.14 28.286 1256.49 42.8775C1228.4 81.4477 1207.66 115.287 1191.25 149.375C1190.09 151.79 1188.73 155.376 1187.14 159.509C1179.97 178.334 1167.92 209.833 1146.75 209.783C1114.59 209.708 1091.8 141.482 1091.8 119.744C1091.8 101.144 1097.85 83.2156 1110.32 64.9389C1120.68 49.725 1135.34 35.1833 1149.46 21.1397C1156.31 14.342 1163.36 7.34503 1170.21 0.0244089L1168.98 0.0244089C1162.27 7.17073 1155.38 14.0183 1148.67 20.6915C1134.48 34.7849 1119.82 49.3266 1109.43 64.6152Z" fill="#2D5037"/>
<path d="M1130.04 72.5584C1119.22 88.4197 1113.99 103.858 1113.96 119.769C1113.96 133.588 1119.42 151.616 1131.36 158.563C1136.56 161.576 1142.65 162.448 1149.46 161.103C1165.51 157.941 1176.85 132.667 1185.12 114.191C1187.8 108.215 1190.12 103.061 1192.07 99.8987C1205.24 78.5593 1220.62 57.444 1235.48 37.0259L1237.13 34.76C1245.73 22.9574 1254.14 11.4038 1261.95 0.0244141L1260.82 0.024414C1253.08 11.2793 1244.77 22.7084 1236.24 34.3865L1234.59 36.6524C1219.7 57.0705 1204.31 78.2107 1191.15 99.5501C1189.16 102.762 1186.85 107.916 1184.17 113.917C1176.42 131.198 1164.71 157.293 1149.2 160.331C1142.68 161.601 1136.89 160.804 1131.96 157.941C1120.28 151.143 1114.95 133.389 1114.95 119.694C1114.95 103.957 1120.18 88.6189 1130.93 72.8572C1140.36 59.0127 1154.39 45.0936 1167.95 31.6226C1177.71 21.9365 1188.23 11.4785 1198.16 0.0244113L1196.97 0.0244112C1187.14 11.3042 1176.79 21.6128 1167.09 31.2242C1153.53 44.6952 1139.5 58.6392 1130.04 72.5584Z" fill="#2D5037"/>
<path d="M1469.12 441.952C1475.8 443.197 1482.38 444.417 1488.93 445.563L1488.93 444.293C1482.52 443.172 1476.06 441.977 1469.51 440.757C1457.24 438.466 1444.57 436.101 1431.6 434.183C1388.43 427.809 1331.82 422.306 1276.9 436.524C1254.57 442.301 1236.34 456.718 1220.26 469.417C1205.94 480.722 1193.56 490.482 1183.17 489.611C1178.41 489.213 1174.14 486.573 1170.17 481.568C1168.35 479.253 1167.43 475.318 1167.43 469.84C1167.43 450.717 1178.64 417.002 1189.76 392.052C1201.83 364.911 1221.09 331.495 1244.18 326.316C1251.52 324.673 1258.97 326.017 1266.25 330.35C1275.61 335.903 1283.81 341.854 1291.79 347.606C1307.44 358.935 1322.22 369.642 1344.16 376.739C1375.46 386.848 1408.11 388.068 1441.19 380.374C1449.2 378.507 1456.58 376.639 1463.1 374.971C1472.72 372.531 1481.13 370.389 1488.93 368.945L1488.93 367.65C1480.96 369.119 1472.39 371.286 1462.57 373.801C1456.05 375.444 1448.7 377.336 1440.7 379.179C1408.01 386.774 1375.75 385.554 1344.82 375.569C1323.15 368.572 1308.46 357.939 1292.95 346.684C1284.97 340.908 1276.7 334.932 1267.27 329.329C1259.53 324.747 1251.59 323.303 1243.68 325.071C1219.93 330.4 1200.38 364.214 1188.17 391.604C1177.02 416.654 1165.77 450.518 1165.77 469.79C1165.77 475.493 1166.76 479.651 1168.75 482.166C1172.98 487.519 1177.65 490.358 1182.97 490.806C1194.19 491.752 1206.83 481.792 1221.45 470.239C1237.4 457.639 1255.49 443.347 1277.46 437.669C1332.02 423.551 1388.36 429.029 1431.3 435.379C1444.2 437.296 1456.88 439.661 1469.12 441.952Z" fill="#2D5037"/>
<path d="M695.322 235.655C692.576 234.41 689.996 233.239 688.077 232.218C664.488 219.619 643.579 204.704 620.619 187.921C617.542 185.655 614.399 183.34 611.256 180.999C592.663 167.155 573.441 152.812 550.713 144.246C541.913 140.935 535.031 139.889 530.83 141.283C528.911 141.906 527.654 143.001 527.091 144.545C526.86 145.168 526.727 145.89 526.727 146.662C526.727 149.724 528.712 153.808 532.418 158.44C539.828 167.653 548.959 176.392 557.826 184.859C565.071 191.781 572.581 198.952 579.066 206.347C605.301 236.153 622.67 255.849 671.601 265.062C681.758 266.979 704.85 268.099 714.908 262.198C718.381 260.156 720.003 257.492 719.804 254.205C719.275 246.536 705.446 240.261 695.322 235.655ZM718.812 254.778C718.812 257.542 717.29 259.858 714.279 261.601C704.519 267.328 681.824 266.207 671.833 264.34C623.266 255.201 606.029 235.605 579.893 205.924C573.375 198.504 565.865 191.333 558.587 184.385C549.754 175.944 540.622 167.204 533.245 158.041C528.745 152.464 526.893 147.683 528.017 144.744C528.514 143.425 529.605 142.503 531.227 141.956C535.097 140.686 541.846 141.732 550.25 144.894C572.846 153.41 592.001 167.702 610.561 181.497C613.704 183.838 616.847 186.178 619.924 188.444C642.917 205.252 663.859 220.167 687.481 232.816C689.433 233.862 692.014 235.032 694.76 236.277C704.685 240.784 718.249 246.934 718.745 254.205C718.812 254.429 718.812 254.604 718.812 254.778Z" fill="#2D5037"/>
<path d="M1150.35 80.3775C1146.98 85.3326 1140.93 99.3015 1140.93 109.411C1140.93 113.021 1141.72 115.785 1143.31 117.603C1146.72 121.537 1149.89 123.28 1153.07 122.932C1160.05 122.135 1164.25 110.706 1167.62 101.543C1169.01 97.7577 1170.24 94.5207 1171.36 92.6532C1184.83 70.7909 1200.41 49.4267 1215.46 28.7596L1217.12 26.4688C1223.67 17.5297 1230.09 8.71503 1236.17 0.0249001L1234.29 0.0249C1228.3 8.51583 1222.01 17.1313 1215.66 25.8961L1214.01 28.1869C1198.92 48.8789 1183.34 70.268 1169.84 92.1552C1168.65 94.0974 1167.43 97.4091 1166 101.219C1162.93 109.585 1158.69 121.014 1152.77 121.712C1150.35 121.986 1147.61 120.392 1144.66 116.931C1143.27 115.312 1142.58 112.797 1142.58 109.411C1142.58 99.6252 1148.6 85.6563 1151.81 80.9253C1160.28 68.4752 1173.65 55.2035 1186.61 42.3301C1198.95 30.0544 1213.02 16.1104 1225.82 -4.52641e-07L1223.87 -5.37963e-07C1211.26 15.7867 1197.43 29.5315 1185.26 41.608C1172.32 54.5063 1158.89 67.8278 1150.35 80.3775Z" fill="#2D5037"/>
<path d="M521.07 43.0019C606.823 45.9899 674.413 90.4615 728.703 126.193L732.971 129.007C797.617 171.511 820.18 169.793 846.316 149.848C874.967 127.986 918.042 93.5242 961.017 46.8864C975.707 30.9503 989.139 15.2135 1001.05 0.0244141L999.13 0.024414C987.352 14.9894 974.119 30.5021 959.694 46.1643C916.784 92.7274 873.776 127.139 845.158 148.977C819.783 168.349 797.716 169.918 734.063 128.086L729.795 125.272C675.306 89.4157 607.484 44.7698 521.136 41.7818C440.114 38.9432 416.326 15.9853 409.643 0.0243882L407.923 0.0243881C414.507 16.3588 438.426 40.1384 521.07 43.0019Z" fill="#2D5037"/>
<path d="M153.578 251.639C157.349 240.559 157.614 228.656 157.846 217.153C157.978 210.504 158.11 203.632 158.937 197.083C162.907 165.734 172.535 138.867 189.242 112.547C207.405 83.9123 224.145 63.5689 237.61 47.2345C242.474 41.3083 244.955 35.4816 244.955 29.8791C244.955 19.4709 235.89 8.68916 220.771 0.0488271L219.117 0.048827C234.633 8.63936 243.963 19.446 243.963 29.8791C243.963 35.3322 241.548 41.0344 236.75 46.8361C223.285 63.1954 206.545 83.5388 188.349 112.224C171.575 138.643 161.948 165.585 157.945 197.008C157.118 203.607 156.985 210.479 156.82 217.153C156.588 228.632 156.324 240.484 152.585 251.49C146.729 268.596 130.121 267.999 110.635 265.558C87.3772 262.67 64.3508 260.255 38.1815 262.645C25.1796 263.84 12.4755 265.708 0.135196 267.949L0.135196 268.721C12.5416 266.455 25.2789 264.587 38.3139 263.392C64.3508 261.027 87.3109 263.417 110.47 266.305C129.757 268.646 147.523 269.343 153.578 251.639Z" fill="#2D5037"/>
<path d="M1460.32 317.85C1389.72 334.907 1351.34 341.854 1318.82 299.499C1313.49 292.552 1309.52 284.658 1307.11 276.043C1305.02 268.747 1304 260.704 1304 252.189C1304 173.454 1391.4 65.3383 1438.35 7.22151L1439.94 5.22951C1441.39 3.4616 1442.78 1.71859 1444.17 0.0253887L1442.25 0.0253886C1441.06 1.51939 1439.84 3.0383 1438.58 4.5821L1436.99 6.57411C1389.88 64.7656 1302.34 173.106 1302.34 252.164C1302.34 260.779 1303.4 268.897 1305.48 276.292C1307.97 285.032 1311.97 293.05 1317.39 300.096C1350.54 343.273 1389.38 336.276 1460.85 319.02C1469.88 316.829 1479.31 314.563 1488.97 312.472L1488.97 311.177C1479.11 313.293 1469.51 315.609 1460.32 317.85Z" fill="#2D5037"/>
<path d="M1470.41 218.447C1467.93 218.945 1464.85 219.642 1461.41 220.439C1451.62 222.68 1445.03 222.282 1441.79 219.244C1440.17 217.725 1439.34 215.509 1439.34 212.646C1439.34 200.494 1453.73 180.275 1458.5 173.627C1460.81 170.39 1462.53 167.925 1463.82 166.008L1470.51 155.799C1476.59 146.411 1482.75 137.273 1488.93 128.433L1488.93 126.84C1482.45 136.078 1476 145.639 1469.61 155.45L1462.93 165.659C1461.67 167.576 1459.92 170.017 1457.64 173.254C1452.87 179.952 1438.38 200.295 1438.38 212.646C1438.38 215.683 1439.27 218.074 1441.03 219.717C1444.54 223.029 1451.48 223.502 1461.71 221.161C1465.15 220.365 1468.19 219.667 1470.7 219.169C1476.66 217.974 1482.71 216.754 1488.93 215.634L1488.93 214.862C1482.61 216.007 1476.46 217.227 1470.41 218.447Z" fill="#2D5037"/>
<path d="M1450.29 294.368C1421.71 301.266 1385.84 307.889 1362.16 297.556C1350.41 292.451 1342.67 283.462 1339.13 270.912C1337.54 265.285 1336.75 258.985 1336.75 252.188C1336.75 180.351 1421.05 76.0693 1466.34 20.0192L1474.67 9.68565C1477.22 6.52334 1479.6 3.28632 1481.85 0.0244138L1480.73 0.0244137C1478.58 3.16182 1476.3 6.24943 1473.85 9.31214L1465.51 19.6457C1420.15 75.7207 1335.76 180.152 1335.76 252.188C1335.76 259.035 1336.58 265.41 1338.17 271.062C1341.78 283.836 1349.68 292.974 1361.69 298.203C1385.71 308.686 1421.84 302.038 1450.62 295.09C1462.96 292.102 1475.8 289.164 1488.93 286.624L1488.93 285.852C1475.67 288.392 1462.73 291.355 1450.29 294.368Z" fill="#2D5037"/>
<path d="M1476.36 235.306C1474.11 235.754 1471.37 236.401 1468.16 237.123C1452.41 240.734 1428.62 246.212 1417.64 241.033C1413.17 238.916 1410.23 235.654 1408.94 231.347C1408.41 229.604 1408.14 227.661 1408.14 225.545C1408.14 207.368 1427.6 180.052 1438.05 165.386C1440.07 162.548 1441.82 160.083 1443.05 158.24L1443.87 156.97C1444.83 155.526 1445.73 154.181 1446.52 152.936L1449.66 148.131C1462.6 128.285 1475.83 109.436 1488.93 92.1053L1488.93 90.6113C1475.53 108.29 1462 127.513 1448.84 147.782L1445.69 152.588C1444.9 153.833 1444.01 155.177 1443.05 156.621L1442.22 157.891C1441 159.734 1439.24 162.174 1437.22 165.013C1426.74 179.729 1407.18 207.144 1407.18 225.52C1407.18 227.686 1407.45 229.678 1407.98 231.471C1409.33 236.003 1412.41 239.414 1417.11 241.63C1428.46 246.984 1452.51 241.456 1468.42 237.796C1471.6 237.074 1474.34 236.426 1476.59 235.978C1480.66 235.206 1484.77 234.384 1488.93 233.588L1488.93 232.816C1484.7 233.637 1480.5 234.459 1476.36 235.306Z" fill="#2D5037"/>
<path d="M1482.32 252.138C1464.68 255.673 1446.42 259.334 1427.6 259.707C1403.25 260.205 1389.32 253.059 1386.18 238.492C1385.71 236.326 1385.48 233.96 1385.48 231.47C1385.48 206.147 1409.5 169.917 1422.4 150.446C1423.66 148.553 1424.82 146.81 1425.84 145.217L1428.99 140.411C1448.64 110.132 1469.08 82.045 1488.93 57.9418L1488.93 56.5225C1468.82 80.8747 1448.04 109.336 1428.03 140.087L1424.88 144.893C1423.86 146.462 1422.7 148.205 1421.44 150.122C1408.51 169.644 1384.42 205.998 1384.42 231.495C1384.42 234.035 1384.65 236.45 1385.15 238.642C1388.39 253.656 1402.65 261.002 1427.6 260.479C1446.55 260.081 1464.85 256.42 1482.55 252.885C1484.67 252.461 1486.78 252.038 1488.9 251.615L1488.9 250.843C1486.72 251.266 1484.5 251.689 1482.32 252.138Z" fill="#2D5037"/>
<path d="M1443.21 277.785C1441.69 278.158 1440.17 278.532 1438.65 278.905C1422.57 282.889 1405.93 286.998 1389.85 280.349C1376.45 274.797 1365.56 263.567 1362.16 251.714C1361.79 250.494 1361.53 249.274 1361.36 248.079C1360.9 245.116 1360.67 242.003 1360.67 238.841C1360.67 205.4 1386.27 166.182 1404.97 137.547L1408.08 132.742C1432.06 95.9642 1460.78 60.4318 1486.12 29.0826C1487.18 27.7629 1488.11 26.6175 1488.93 25.5966L1488.93 24.1523C1487.01 26.5179 1485.26 28.6842 1485.26 28.6842C1459.92 60.0334 1431.2 95.5907 1407.22 132.418L1404.11 137.199C1385.38 165.909 1359.71 205.201 1359.71 238.816C1359.71 242.028 1359.94 245.165 1360.4 248.153C1360.6 249.374 1360.87 250.619 1361.23 251.864C1364.7 263.915 1375.75 275.344 1389.42 280.997C1405.86 287.794 1422.7 283.636 1439.01 279.602C1440.53 279.229 1442.05 278.855 1443.58 278.482C1458.07 274.971 1473.25 271.535 1488.97 268.671L1488.97 267.899C1473.12 270.788 1457.8 274.249 1443.21 277.785Z" fill="#2D5037"/>
<path d="M750.408 250.67C746.835 239.739 726.72 230.202 710.575 222.508C704.918 219.819 699.591 217.279 695.786 215.063C674.58 202.712 655.491 188.768 637.063 175.272C632.266 171.761 626.807 167.329 621.05 162.673C603.946 148.779 582.64 131.498 563.154 126.244C546.777 121.837 531.129 124.426 516.042 126.941C503.636 129.008 490.799 131.149 477.5 129.456C469.229 128.41 461.09 124.65 452.489 120.642C442.166 115.861 431.513 110.931 420.033 110.632C416.129 110.532 412.292 110.98 408.586 111.976C396.312 115.263 390.622 118.699 390.622 122.783C390.622 126.891 396.213 131.224 409.877 137.748C422.945 143.973 438.064 146.413 452.687 148.779C467.376 151.144 482.562 153.609 495.696 159.884C520.707 171.836 539.168 192.902 555.412 211.477C556.769 213.046 558.158 214.59 559.481 216.133C586.643 246.985 608.115 271.362 665.879 282.243C681.163 285.132 720.136 284.36 740.053 272.657C749.746 266.954 753.286 259.484 750.408 250.67ZM739.06 271.661C721.195 282.144 683.446 284.235 666.309 281.023C609.14 270.266 587.834 246.063 560.871 215.436C559.515 213.917 558.158 212.349 556.802 210.78C540.458 192.08 521.898 170.89 496.589 158.813C483.19 152.414 467.872 149.949 453.018 147.534C438.527 145.193 423.54 142.778 410.737 136.677C401.606 132.32 392.243 127.265 392.243 122.783C392.243 119.347 397.768 116.209 409.116 113.147C412.656 112.2 416.229 111.777 419.967 111.877C430.984 112.176 441.472 117.006 451.595 121.712C460.362 125.771 468.633 129.606 477.202 130.676C490.833 132.419 503.835 130.253 516.373 128.161C531.956 125.572 546.645 123.107 562.591 127.414C581.681 132.569 602.821 149.725 619.826 163.52C625.616 168.201 631.042 172.633 635.905 176.169C654.399 189.69 673.521 203.658 694.794 216.059C698.665 218.325 704.057 220.864 709.715 223.579C725.595 231.148 745.379 240.535 748.82 250.969C749.448 252.861 749.746 254.704 749.746 256.447C749.713 262.373 746.14 267.502 739.06 271.661Z" fill="#2D5037"/>
<path d="M822.231 262.125C833.579 256.198 835.035 251.044 836.59 245.566C837.649 241.806 838.773 237.897 843.24 233.44L843.802 233.066C862.693 220.367 924.295 177.763 924.295 163.346C924.295 161.653 923.501 160.333 921.913 159.412C918.571 157.494 911.855 157.594 901.368 159.711C895.148 160.98 886.546 173.032 877.415 185.806C869.839 196.438 861.998 207.444 856.109 211.179C850.816 214.516 843.504 218.923 840.99 218.525C840.295 218.425 839.898 217.852 839.27 216.881C837.814 214.665 835.564 211.304 825.143 213.096C817.931 214.341 810.751 217.703 803.804 220.94C797.353 223.978 791.232 226.841 785.31 227.987C769.033 231.174 739.158 211.104 719.407 197.833C712.89 193.45 707.265 189.665 702.998 187.25C685.96 177.589 670.145 165.512 654.894 153.859C625.185 131.175 594.483 107.744 552.103 99.4773C488.747 87.1517 432.803 84.6866 385.824 92.1815C360.746 96.1655 325.81 109.91 325.81 123.232C325.81 131.524 339.043 137.574 365.179 141.185C465.82 155.129 499.301 193.151 531.69 229.954C560.374 262.548 587.469 293.324 657.871 306.571C684.438 311.551 725.263 303.882 747.859 293.897C757.95 289.44 763.607 283.838 769.099 278.409C773.929 273.653 778.462 269.146 785.74 265.66C790.868 263.195 796.889 263.644 803.208 264.092C809.693 264.64 816.475 265.138 822.231 262.125ZM784.417 264.241C776.808 267.877 772.143 272.508 767.18 277.413C761.821 282.717 756.296 288.17 746.602 292.453C724.403 302.264 684.338 309.808 658.335 304.928C588.826 291.855 561.962 261.353 533.543 229.032C500.889 191.956 467.11 153.585 365.51 139.517C340.995 136.13 328.026 130.503 328.026 123.257C328.026 111.952 359.324 98.1825 386.221 93.8996C432.836 86.4794 488.449 88.9196 551.441 101.195C593.226 109.313 623.696 132.594 653.174 155.104C668.491 166.807 684.338 178.909 701.542 188.669C705.711 191.035 711.302 194.795 717.786 199.152C739.125 213.495 768.371 233.116 785.806 229.68C792.092 228.435 798.312 225.522 804.929 222.409C811.711 219.222 818.692 215.96 825.54 214.79C834.208 213.296 835.73 215.611 837.086 217.653C837.847 218.774 838.608 219.944 840.428 220.243C842.843 220.616 846.548 219.471 857.499 212.524C863.719 208.589 871.659 197.434 879.367 186.652C887.44 175.323 896.604 162.499 901.864 161.429C913.84 158.988 918.538 159.76 920.391 160.831C921.384 161.404 921.847 162.226 921.847 163.371C921.847 174.252 880.657 205.85 842.148 231.796C841.685 232.12 841.42 232.294 841.42 232.319C836.524 237.175 835.3 241.458 834.241 245.217C832.719 250.546 831.429 255.153 820.809 260.705C815.78 263.345 809.693 262.897 803.275 262.423C796.922 261.95 790.24 261.452 784.417 264.241Z" fill="#2D5037"/>
<path d="M1036.98 0.024414C973.854 83.9875 873.412 174.474 823.488 190.958C793.514 200.844 757.685 176.865 712.327 146.512C660.782 112 596.633 69.0723 519.647 66.3831C425.788 63.1212 387.246 28.1117 375.6 0.024385L373.185 0.0243849C384.831 28.7591 423.87 64.8144 519.548 68.1261C595.707 70.7655 659.525 113.494 710.805 147.806C756.791 178.583 793.084 202.91 824.448 192.552C874.735 175.943 976.071 84.5851 1039.49 0.0244141L1036.98 0.024414Z" fill="#2D5037"/>
<path d="M1470.34 341.305C1405.13 357.067 1337.74 373.351 1290.46 311.823C1283.38 302.635 1278.22 292.302 1275.08 281.171C1272.53 272.182 1271.24 262.422 1271.24 252.163C1271.24 168.971 1353.42 64.914 1405.83 0.0244104L1403.11 0.0244103C1350.58 65.1381 1268.93 168.897 1268.93 252.163C1268.93 262.546 1270.22 272.406 1272.8 281.52C1276.01 292.849 1281.27 303.332 1288.45 312.695C1336.65 375.443 1404.97 358.934 1471.04 342.973C1477.06 341.529 1483.01 340.085 1488.93 338.715L1488.93 336.898C1482.78 338.292 1476.59 339.811 1470.34 341.305Z" fill="#2D5037"/>
<path d="M122.209 238.742C133.359 229.678 134.285 216.132 135.112 204.18C135.31 201.118 135.542 198.204 135.873 195.415C140.108 161.975 150.43 133.24 168.328 105.028C183.745 80.7505 197.806 61.926 212.561 45.8157C216.597 41.4084 218.648 36.9014 218.648 32.3945C218.648 22.1855 207.995 12.5741 190.196 6.69764C183.48 4.48153 176.864 2.29032 170.313 0.0244119L167.931 0.0244118C175.11 2.51442 182.389 4.92973 189.799 7.36994C207.235 13.1219 217.656 22.4843 217.656 32.3945C217.656 36.7271 215.671 41.1096 211.734 45.3924C196.945 61.5276 182.852 80.377 167.402 104.704C149.437 133.016 139.082 161.825 134.847 195.366C134.483 198.179 134.285 201.093 134.086 204.18C133.259 216.008 132.333 229.404 121.448 238.268C108.81 248.552 84.8246 247.108 63.6841 245.813C53.2958 245.191 43.4368 244.593 35.4305 245.315C23.4873 246.411 11.6764 248.577 0.163212 250.843L0.163212 251.615C11.7425 249.324 23.5866 247.158 35.5629 246.062C43.503 245.34 53.2958 245.938 63.651 246.56C85.0231 247.83 109.24 249.274 122.209 238.742Z" fill="#2D5037"/>
<path d="M64.7782 6.02533C65.9361 3.83413 67.0279 1.84212 68.252 0.0244141L67.1271 0.024414C65.9361 1.79232 64.9105 3.70963 63.8519 5.72653C63.2894 6.77234 62.727 7.84304 62.0984 8.96354C53.1327 24.9743 44.6632 37.2251 35.499 47.4591C23.9859 60.3075 12.1088 74.8243 0.165592 90.586L0.165592 92.08C12.4066 75.895 24.5483 61.0296 36.3261 47.8824C45.5234 37.5986 54.026 25.3229 63.0248 9.26235C63.6534 8.14184 64.2489 7.07114 64.7782 6.02533Z" fill="#2D5037"/>
<path d="M16.3095 37.7476C10.983 43.6738 5.62339 49.9735 0.164571 56.5471L0.164571 57.9664C5.88806 51.0193 11.5454 44.3959 17.1366 38.1709C25.0105 29.3811 35.1341 14.5905 43.0742 0.0488281L42.0155 0.0488281C34.1085 14.4411 24.0841 29.0325 16.3095 37.7476Z" fill="#2D5037"/>
<path d="M800.198 23.2811C810.851 22.061 820.412 16.5083 829.345 6.34904C831.164 4.25743 833.017 2.16582 834.969 0.0244141L833.778 0.024414C831.991 2.01642 830.238 3.98353 828.517 5.95063C819.75 15.9356 810.421 21.3638 800.065 22.559C782.895 24.5261 765.228 14.7155 745.51 2.68872C744.187 1.86702 742.533 0.970613 740.779 0.04931L739.059 0.04931C741.276 1.21961 743.294 2.29032 744.882 3.28632C764.765 15.4127 782.63 25.3229 800.198 23.2811Z" fill="#2D5037"/>
<path d="M5.69146 18.7244C10.5548 12.7235 14.8556 6.44864 18.6934 0.0244141L17.6015 0.024414C13.7969 6.32414 9.59535 12.4496 4.86437 18.3509C4.83128 18.4007 2.41612 21.4136 0.166427 24.1526L0.166426 25.5968C4.3019 20.4674 5.39371 19.1228 5.69146 18.7244Z" fill="#2D5037"/>
<path d="M1485.66 169.819C1482.52 174.501 1478.21 180.875 1478.21 186.527C1478.21 188.893 1478.98 190.935 1480.53 192.628C1480.66 192.777 1480.8 192.902 1480.93 193.051C1482.88 194.894 1485.72 196.089 1488.93 196.811L1488.93 195.516C1486.19 194.844 1483.84 193.823 1482.22 192.279C1482.09 192.18 1481.99 192.055 1481.89 191.931C1480.56 190.462 1479.87 188.644 1479.87 186.527C1479.87 181.174 1484.07 174.924 1487.15 170.367C1487.61 169.67 1488.04 169.047 1488.44 168.45C1488.44 168.45 1488.64 168.126 1488.97 167.653L1488.97 164.814L1486.95 167.902C1486.55 168.5 1486.12 169.147 1485.66 169.819Z" fill="#2D5037"/>
<path d="M29.9397 181.522C34.2075 182.443 37.946 182.145 40.9897 180.651C48.4997 176.99 50.4185 167.13 51.8081 159.934C52.0396 158.739 52.2713 157.618 52.4698 156.647C52.5359 156.323 52.7014 155.775 52.8999 155.053C53.8924 151.293 56.0098 143.45 56.0098 137.573C56.0098 134.063 55.2488 131.822 53.727 130.726C52.9661 130.178 52.0066 129.904 50.8817 129.954C42.3461 130.303 37.0528 140.163 33.9098 146.064C33.4136 146.986 32.9834 147.807 32.5864 148.505C31.6601 150.098 30.4691 151.891 29.2119 153.808C25.2088 159.884 20.6432 166.781 20.6432 172.683C20.6432 173.454 20.7094 174.177 20.8748 174.874C21.6027 178.161 24.6463 180.402 29.9397 181.522ZM22.7275 174.6C22.5952 174.002 22.529 173.33 22.529 172.658C22.529 167.08 26.9953 160.357 30.8992 154.431C32.1564 152.513 33.3805 150.696 34.3068 149.077C34.7038 148.38 35.167 147.533 35.6633 146.612C38.6408 141.035 43.6364 131.697 50.948 131.398C51.5104 131.373 51.9735 131.498 52.3705 131.772C53.1315 132.32 54.0578 133.789 54.0578 137.573C54.0578 143.3 51.9735 151.044 50.981 154.779C50.7825 155.526 50.6502 156.074 50.551 156.423C50.3194 157.419 50.1208 158.539 49.8561 159.759C48.5989 166.308 46.6802 176.193 39.898 179.48C37.2844 180.75 34.1745 180.974 30.403 180.177C25.8705 179.181 23.3561 177.364 22.7275 174.6Z" fill="#2D5037"/>
<path d="M74.1777 230.051C83.9043 231.247 93.9618 232.467 101.604 227.636C110.735 221.859 111.364 212.447 111.926 204.13L111.992 203.284C112.191 200.321 112.422 196.984 112.819 193.772C117.319 158.24 128.303 127.637 147.425 97.5083C153.446 88.0213 160.295 78.7087 166.945 69.6949C170.584 64.7397 174.355 59.6352 177.961 54.5307L178.193 54.1821C182.395 48.2061 186.762 42.0309 186.762 35.6813C186.762 32.3198 185.538 29.3069 183.056 26.4434C174.289 16.3091 157.284 11.4536 140.841 6.74744C133.365 4.60603 126.318 2.53932 120.131 0.0742158L118.047 0.0742157C124.63 2.86303 132.339 5.10403 140.478 7.44464C156.788 12.101 173.627 16.9316 182.229 26.8667C184.611 29.6057 185.769 32.519 185.769 35.7062C185.769 41.8815 181.468 47.982 177.3 53.8584L177.068 54.207C173.495 59.2866 169.724 64.416 166.084 69.3712C159.435 78.385 152.586 87.7225 146.532 97.2344C127.343 127.438 116.326 158.115 111.827 193.747C111.43 196.984 111.198 200.346 111 203.309L110.934 204.155C110.371 212.323 109.743 221.56 100.942 227.113C93.6309 231.72 83.8051 230.525 74.31 229.354C71.2663 228.981 68.3549 228.632 65.5097 228.458C54.4267 227.786 42.9797 227.088 32.6245 228.035C21.3429 229.055 10.5907 230.873 0.13619 232.865L0.13619 233.637C10.6237 231.62 21.4422 229.802 32.7568 228.782C43.0128 227.835 54.3936 228.533 65.4766 229.205C68.2557 229.329 71.134 229.678 74.1777 230.051Z" fill="#2D5037"/>
<path d="M788.984 45.3177C813.135 51.7917 822.861 45.2679 848.634 15.9605C850.685 13.6448 852.736 11.3042 854.886 8.91375C857.632 5.85103 860.279 2.91282 862.926 0.0244141L861.735 0.024414C859.22 2.78832 856.706 5.57713 854.059 8.51534C851.942 10.8809 849.858 13.2215 847.84 15.5621C822.398 44.4711 812.87 50.9202 789.347 44.6205C768.042 38.9183 750.011 27.8876 730.922 16.2095C722.022 10.7812 712.957 5.22853 703.264 0.0244071L701.543 0.024407C711.634 5.37793 721.063 11.1298 730.293 16.7822C749.448 28.5101 767.545 39.5657 788.984 45.3177Z" fill="#2D5037"/>
<path d="M87.1727 196.96C91.7382 189.091 92.83 180.501 93.8887 172.209C94.4842 167.478 95.1128 162.598 96.37 157.916C102.689 134.46 112.846 111.602 126.542 89.9889C132.861 80.0289 139.875 70.4921 146.69 61.2293C147.65 59.9096 148.94 58.3907 150.33 56.7722C154.862 51.4436 160.486 44.7952 160.486 38.8441C160.486 36.628 159.692 34.636 158.104 32.9179C153.87 28.3861 145.4 26.2447 137.89 24.3523C136.037 23.8792 134.251 23.431 132.663 22.9828C129.851 22.186 125.947 20.5674 121.811 18.8493C111.82 14.7159 99.4137 9.56161 91.9368 11.4042C84.3937 13.2717 80.2582 20.667 76.9498 26.6182C76.1889 27.9628 75.4941 29.2327 74.7994 30.3283C68.3811 40.4875 61.8305 49.2772 54.7175 57.2204C37.0839 76.8914 18.557 100.621 0.162409 126.841L0.162409 128.435C18.8217 101.717 37.6463 77.6135 55.5446 57.6437C62.6907 49.6756 69.2744 40.861 75.6926 30.6769C76.3874 29.5813 77.1152 28.2865 77.8762 26.9419C81.1184 21.1401 85.1546 13.9191 92.2676 12.1512C99.3145 10.4082 111.555 15.4629 121.348 19.5216C125.682 21.3145 129.421 22.8832 132.299 23.7049C133.92 24.178 135.707 24.6262 137.592 25.0993C144.937 26.9419 153.274 29.0584 157.31 33.391C158.766 34.9597 159.527 36.8272 159.527 38.869C159.527 44.596 153.969 51.1448 149.536 56.3987C148.146 58.0172 146.856 59.561 145.863 60.9056C139.048 70.1435 132.034 79.7051 125.682 89.6901C111.919 111.353 101.763 134.261 95.4106 157.792C94.1534 162.498 93.5248 167.403 92.9293 172.159C91.8706 180.401 90.812 188.942 86.3126 196.686C78.3725 210.406 62.823 210.331 46.3473 210.281C40.9216 210.256 35.2973 210.231 29.9047 210.729C19.4502 211.676 9.65748 213.195 0.195517 214.913L0.195517 215.685C9.69056 213.966 19.5164 212.448 30.0039 211.476C35.3304 210.978 40.9217 211.003 46.3143 211.028C63.0878 211.053 78.9679 211.103 87.1727 196.96Z" fill="#2D5037"/>
<path d="M2.8098 163.568C26.8286 126.666 51.7738 93.4491 74.9986 67.5033C78.0423 64.0919 80.5898 60.3818 83.0711 56.7962C86.4787 51.8411 89.9856 46.7117 94.882 42.3791C101.532 36.4778 108.082 34.9588 116.122 37.4489C122.408 39.416 125.484 42.7028 125.484 47.5334C125.484 55.601 116.817 66.333 110.464 74.1765C107.983 77.2641 105.8 79.9284 104.476 82.02C89.8863 105.003 79.101 129.28 72.385 154.23C70.8631 159.858 70.2015 165.211 69.5398 170.415C69.4406 171.312 69.3413 172.258 69.2421 173.204C68.5804 179.454 67.8525 186.551 61.6659 190.759C55.4792 194.992 42.9405 195.39 32.8499 195.714C30.0709 195.813 27.4241 195.888 25.1413 196.038L23.8842 196.112C17.2344 196.585 7.37544 197.258 0.196252 195.465L0.196251 196.76C7.67319 198.478 17.3998 197.805 24.0496 197.332L25.3068 197.258C27.5565 197.108 30.1701 197.009 32.9492 196.934C43.3044 196.61 56.1739 196.187 62.7907 191.655C69.4736 187.098 70.2346 179.753 70.8963 173.279C70.9955 172.333 71.0947 171.411 71.194 170.515C71.8557 165.336 72.5173 160.007 74.0392 154.454C80.7221 129.629 91.4743 105.426 105.998 82.5429C107.288 80.5011 109.439 77.8617 111.887 74.799C118.338 66.831 127.139 55.9247 127.139 47.5085C127.139 42.1799 123.665 38.3951 116.783 36.2537C108.115 33.5395 100.771 35.2327 93.6579 41.5325C88.6623 45.9896 85.0892 51.1688 81.6485 56.1986C79.2003 59.7593 76.6859 63.4196 73.6753 66.7812C50.4174 92.7768 25.406 126.043 1.35411 162.995C0.890932 163.692 0.527063 164.29 0.163141 164.788L0.163141 167.627C1.0564 166.257 2.8098 163.568 2.8098 163.568Z" fill="#2D5037"/>
<path d="M664.291 241.73L664.291 241.555C664.291 238.02 658.336 234.434 653.969 231.819C653.043 231.247 652.182 230.749 651.521 230.3C647.782 227.835 643.845 225.445 640.007 223.154C637.526 221.66 635.078 220.191 632.663 218.672L632.365 218.498C624.524 213.518 619.429 211.501 616.783 212.298C616.055 212.522 615.129 213.07 614.93 214.414C614.897 214.613 614.897 214.813 614.897 215.012L614.897 215.136C615.195 225.096 627.171 233.164 634.284 237.098C641.066 240.833 648.411 243.498 654.399 244.444C655.788 244.668 660.553 245.265 662.935 243.846C663.762 243.298 664.225 242.576 664.291 241.73ZM654.697 243.199C648.94 242.302 641.827 239.713 635.243 236.077C628.362 232.292 616.783 224.524 616.518 215.087L615.691 214.987L616.518 214.987C616.518 214.838 616.518 214.688 616.551 214.539C616.683 213.642 617.213 213.493 617.378 213.443C618.305 213.169 621.481 213.219 631.306 219.444L631.604 219.643C634.052 221.162 636.501 222.656 638.982 224.15C642.787 226.441 646.724 228.806 650.429 231.272C651.091 231.72 651.984 232.243 652.943 232.815C656.814 235.131 662.637 238.642 662.637 241.705C662.604 242.203 662.372 242.576 661.876 242.875C660.42 243.697 657.079 243.572 654.697 243.199Z" fill="#2D5037"/>
<path d="M329.118 504.426C334.114 537.468 384.963 572.901 428.038 573.349C494.074 574.046 546.842 545.486 597.857 517.847C606.525 513.166 615.491 508.31 624.291 503.729L629.585 500.965C654.464 487.967 682.684 473.226 713.154 468.42C738.993 464.362 799.106 458.161 819.883 464.909C835.101 469.864 843.802 483.958 852.205 497.578C858.028 506.99 863.52 515.88 871.03 522.13L871.394 522.429C897.1 543.793 897.1 543.793 897.762 558.359C897.96 562.767 898.225 568.245 899.184 575.989C900.475 586.372 902.493 592.497 903.948 596.979C904.875 599.818 905.57 601.885 905.57 603.702C905.57 608.184 901.335 611.944 887.373 624.369C846.052 661.097 774.194 660.4 704.685 659.753C617.245 658.906 526.793 658.034 498.176 732.535C494.074 743.242 491.956 753.676 491.956 763.536C491.956 791.549 508.597 815.378 540.027 832.484C586.179 857.584 658.169 864.257 719.209 849.068C860.079 814.033 940.638 730.319 1017.39 640.281C1087.17 558.434 1106.39 480.497 1118.93 413.839C1119.82 409.009 1120.28 404.427 1120.28 400.194C1120.28 373.177 1102.02 360.329 1078.9 344.069C1070.03 337.844 1060.9 331.395 1051.54 323.402C1040.85 314.239 1033.54 302.611 1026.46 291.331C1014.91 272.955 1004.03 255.599 979.776 248.428C928.331 233.214 888.267 270.589 852.9 303.582C836.524 318.845 821.074 333.263 805.624 341.729C744.352 375.219 641.032 365.209 582.97 334.831C564.84 325.344 542.442 307.167 518.688 287.919C479.385 256.047 434.821 219.917 397.403 213.543C379.802 210.53 367.495 211.327 359.82 215.933C353.401 219.793 350.292 226.292 350.292 235.804C350.292 251.466 358.86 273.876 367.925 297.606C379.008 326.614 391.58 359.507 391.58 387.545C391.58 400.916 388.834 411.997 383.144 421.384C376.593 432.191 367.164 441.354 358 450.193C342.914 464.81 328.655 478.604 328.655 498.126C328.655 500.193 328.82 502.309 329.118 504.426ZM384.633 421.932C390.422 412.37 393.234 401.14 393.234 387.57C393.234 359.358 380.629 326.365 369.513 297.282C360.481 273.627 351.946 251.291 351.946 235.804C351.946 226.69 354.857 220.515 360.845 216.929C368.091 212.572 379.935 211.85 397.006 214.763C433.927 221.063 478.293 257.043 517.464 288.766C541.251 308.064 563.748 326.29 582.01 335.852C640.535 366.479 744.749 376.539 806.583 342.725C822.198 334.184 837.748 319.692 854.19 304.354C889.193 271.71 928.894 234.708 979.181 249.573C1002.8 256.57 1013.59 273.702 1024.97 291.854C1032.08 303.208 1039.46 314.936 1050.31 324.224C1059.71 332.267 1068.9 338.741 1077.77 344.99C1100.6 361.051 1118.63 373.725 1118.63 400.219C1118.63 404.402 1118.17 408.934 1117.27 413.69C1104.77 480.198 1085.58 557.986 1015.97 639.633C939.381 729.473 859.021 813.013 718.646 847.922C658.07 862.987 586.675 856.388 540.953 831.513C509.954 814.656 493.577 791.15 493.577 763.561C493.577 753.825 495.629 743.516 499.731 732.909C512.402 699.916 538.472 679.025 579.364 669.09C615.987 660.176 661.047 660.624 704.619 661.047C774.492 661.72 846.747 662.417 888.598 625.241C908.58 607.487 908.911 606.989 905.536 596.73C904.081 592.298 902.096 586.198 900.805 575.914C899.846 568.22 899.581 562.742 899.383 558.359C898.688 543.345 898.688 543.345 872.585 521.632L872.221 521.333C864.877 515.232 859.418 506.418 853.661 497.08C845.126 483.236 836.259 468.918 820.478 463.789C799.338 456.916 738.794 463.141 712.757 467.225C681.956 472.056 653.604 486.871 628.559 499.944L623.266 502.708C614.465 507.289 605.5 512.145 596.832 516.851C546.015 544.365 493.511 572.826 428.005 572.129C385.625 571.681 335.635 536.821 330.706 504.301C330.408 502.235 330.243 500.168 330.243 498.176C330.243 479.077 344.337 465.457 359.224 451.015C368.488 442.076 378.016 432.863 384.633 421.932Z" fill="#2D5037"/>
<path d="M142.059 330.374C155.557 341.604 167.368 359.382 181.064 379.975C190.626 394.342 214.115 413.665 233.337 412.494C243.824 411.872 251.698 405.497 256.661 393.595C258.613 388.914 259.572 383.785 259.572 377.933C259.572 362.694 252.856 345.513 246.901 330.374C244.188 323.452 241.641 316.928 239.821 310.952C224.702 260.853 215.571 230.599 215.571 203.483C215.571 179.479 222.717 158.439 240.218 130.849C257.058 104.306 272.905 85.0582 285.609 69.5953C304.335 46.8366 312.605 36.2291 312.605 22.7831C312.605 16.5083 310.753 9.01334 306.948 0.0244138L305.228 0.0244137C309.065 9.03825 310.984 16.5581 310.984 22.7831C310.984 35.9054 302.78 46.4133 284.22 68.9728C271.482 84.4606 255.635 103.708 238.729 130.327C221.096 158.09 213.917 179.305 213.917 203.508C213.917 230.749 223.048 261.052 238.2 311.251C240.02 317.251 242.567 323.8 245.28 330.747C251.169 345.812 257.852 362.893 257.852 377.958C257.852 383.685 256.925 388.69 255.007 393.247C250.243 404.626 242.865 410.677 233.105 411.274C214.611 412.395 191.817 393.496 182.454 379.427C168.691 358.76 156.814 340.907 143.184 329.552C102.027 295.29 48.2992 300.817 0.0631273 311.201L0.0631272 312.496C48.0677 302.137 101.432 296.535 142.059 330.374Z" fill="#2D5037"/>
<path d="M778.793 414.785C778.793 416.952 782.234 418.446 789.645 419.491C835.201 425.965 899.714 439.984 934.121 486.821C944.774 501.288 953.178 517.648 959.894 536.796C961.25 540.655 964.922 544.764 968.495 548.773C973.127 553.927 977.891 559.28 977.891 564.211C977.891 564.783 977.825 565.356 977.693 565.879C977.031 568.643 974.914 570.71 972.862 572.702C970.547 574.943 968.363 577.059 968.363 579.997C968.363 581.093 968.661 582.238 969.322 583.458C970.414 585.55 972.565 586.646 974.649 587.691C977.593 589.185 980.372 590.58 979.876 594.813C979.413 599.021 975.145 601.287 970.646 603.677C967.503 605.346 964.228 607.089 962.408 609.554C961.085 611.347 959.662 614.584 959.662 617.447C959.662 619.439 960.357 620.858 961.746 621.655C963.07 622.402 964.955 622.552 967.304 622.054C975.112 620.41 982.391 607.836 987.221 599.494C988.643 597.029 989.867 594.913 990.827 593.543C999.561 581.143 1006.94 568.767 1013.03 558.309C1038.67 514.186 1054.31 473.948 1060.87 435.328C1061.59 430.97 1061.96 427.21 1061.96 423.799C1061.96 404.775 1050.91 390.035 1014.65 360.702C1005.75 353.506 998.105 346.086 990.728 338.94C974.186 322.904 961.118 310.23 944.675 310.529C931.706 310.778 917.877 319.244 901.17 337.222C874.273 366.155 833.414 385.353 806.385 398.077C789.777 405.846 778.793 411.025 778.793 414.785ZM902.063 337.595C918.572 319.841 932.169 311.45 944.807 311.226C960.754 310.927 973.69 323.477 990.066 339.363C997.477 346.534 1005.12 353.954 1014.05 361.175C1050.11 390.358 1061.1 404.975 1061.1 423.774C1061.1 427.161 1060.73 430.896 1060.01 435.203C1053.49 473.749 1037.84 513.913 1012.23 557.961C1006.14 568.419 998.767 580.769 990.066 593.145C989.073 594.539 987.849 596.68 986.427 599.146C981.696 607.338 974.517 619.738 967.172 621.282C965.121 621.705 963.533 621.63 962.474 621.008C961.085 620.211 960.787 618.592 960.787 617.397C960.787 614.808 962.11 611.645 963.434 609.877C965.121 607.562 968.297 605.893 971.374 604.25C975.873 601.86 980.505 599.395 981.034 594.838C981.597 590.157 978.387 588.588 975.344 587.044C973.292 585.998 971.374 585.027 970.381 583.16C969.786 582.014 969.488 580.993 969.488 579.972C969.488 577.308 971.572 575.266 973.756 573.125C975.873 571.058 978.09 568.917 978.751 565.979C978.884 565.406 978.95 564.783 978.95 564.186C978.95 559.032 974.087 553.603 969.389 548.349C965.716 544.241 962.209 540.332 960.919 536.621C954.203 517.399 945.734 501.014 935.048 486.473C900.442 439.362 835.631 425.268 789.876 418.769C783.127 417.798 779.819 416.503 779.819 414.785C779.819 411.424 791.233 406.07 807.014 398.65C834.076 385.901 875.034 366.629 902.063 337.595Z" fill="#2D5037"/>
<path d="M363.658 506.767C366.238 523.799 381.787 539.834 403.259 547.653C422.877 554.774 456.16 558.634 503.271 536.523C523.518 527.036 543.931 516.677 563.682 506.668C620.156 478.032 673.52 450.991 727.05 439.811C787.593 427.186 837.549 437.321 884.231 471.733C924.659 501.538 947.851 540.905 947.851 579.774C947.851 608.982 934.187 635.052 909.407 653.155C882.179 673.05 842.313 683.01 794.177 681.914C782.994 681.665 771.448 681.267 759.207 680.844C715.735 679.35 666.473 677.631 625.482 682.91C578.338 688.986 549.224 703.403 536.454 726.959C529.606 739.583 526.165 751.535 526.165 762.516C526.165 782.461 537.744 799.443 559.613 811.619C596.832 832.311 660.551 837.266 718.183 823.969C841.85 795.409 915.66 726.734 994.73 625.217C1054.78 548.101 1073.3 482.963 1084.39 424.074C1085.21 419.692 1085.64 415.508 1085.64 411.649C1085.64 387.048 1069 375.344 1047.93 360.529C1039.82 354.827 1031.49 348.95 1022.92 341.63C1013.09 333.214 1007.1 325.893 1001.81 319.419C993.341 309.036 986.029 300.096 966.444 290.211C927.57 270.64 903.717 296.835 878.474 324.548C865.141 339.19 851.345 354.354 835.002 362.471C732.343 413.466 622.836 392.899 554.584 356.62C535.065 346.261 516.637 331.122 497.151 315.086C473.297 295.49 448.65 275.221 421.091 263.618C409.247 258.638 401.208 257.218 396.51 259.285C393.069 260.804 391.415 264.166 391.415 269.519C391.415 279.081 396.675 294.27 402.796 311.874C411.331 336.55 421.984 367.252 421.984 394.393C421.984 408.76 418.941 421.086 412.952 431.021C406.964 440.906 398.329 449.273 389.959 457.365C376.196 470.687 363.227 483.236 363.227 501.015C363.227 502.932 363.393 504.85 363.658 506.767ZM413.879 431.37C420.032 421.21 423.01 409.134 423.01 394.443C423.01 367.227 412.357 336.451 403.788 311.75C397.701 294.195 392.474 279.056 392.44 269.569C392.44 264.489 393.962 261.352 397.072 259.957C401.439 258.04 409.148 259.459 420.661 264.29C448.054 275.819 472.669 296.038 496.456 315.609C516.008 331.67 534.436 346.834 554.055 357.242C594.053 378.507 639.675 391.056 685.993 393.522C738.927 396.36 789.28 386.126 835.597 363.094C852.073 354.901 865.935 339.688 879.334 324.972C904.312 297.557 927.868 271.661 965.947 290.834C985.368 300.594 992.613 309.509 1001.02 319.792C1006.31 326.291 1012.33 333.637 1022.22 342.103C1030.79 349.448 1039.19 355.35 1047.3 361.052C1068.18 375.743 1084.69 387.371 1084.69 411.624C1084.69 415.434 1084.26 419.592 1083.46 423.949C1072.38 482.763 1053.88 547.827 993.936 624.818C915.032 726.187 841.321 794.737 717.985 823.222C660.617 836.469 597.262 831.564 560.274 810.996C538.671 798.97 527.224 782.212 527.224 762.491C527.224 751.61 530.664 739.757 537.447 727.232C550.085 703.926 578.934 689.658 625.714 683.632C666.606 678.354 715.834 680.072 759.24 681.566C771.481 681.989 783.027 682.387 794.21 682.636C842.644 683.732 882.742 673.722 910.168 653.678C935.146 635.426 948.909 609.181 948.909 579.774C948.909 540.706 925.618 501.14 884.992 471.185C860.179 452.908 834.605 441.628 806.748 436.673C781.869 432.266 755.766 433.038 726.851 439.064C673.156 450.269 619.759 477.335 563.186 506.02C543.435 516.03 523.022 526.388 502.808 535.875C456.061 557.812 423.142 554.003 403.755 546.956C382.581 539.262 367.231 523.45 364.716 506.667C364.419 504.775 364.286 502.883 364.286 501.04C364.286 483.535 377.189 471.06 390.819 457.863C399.156 449.746 407.857 441.33 413.879 431.37Z" fill="#2D5037"/>
<path d="M404.714 523.102C411.033 529.625 419.867 533.46 430.95 534.456C463.471 537.419 510.946 515.706 541.681 496.209C580.058 471.882 621.016 447.729 660.65 435.901C662.602 435.329 668.127 434.432 675.108 433.312C698.664 429.502 738.066 423.153 738.066 413.94C738.066 413.093 737.736 412.221 737.041 411.375C734.03 407.54 728.075 406.42 718.911 407.914C711.401 409.134 702.733 411.972 695.091 414.438C687.018 417.077 680.038 419.343 676.067 419.293C665.845 419.193 661.345 415.608 656.978 412.122C653.57 409.408 650.064 406.619 643.943 405.598C636.069 404.303 630.147 406.743 624.424 409.109C619.13 411.3 613.671 413.541 606.625 412.844C593.689 411.524 547.074 380.698 505.918 353.532C471.874 331.022 442.463 311.6 436.839 311.924C436.409 311.949 436.078 312.073 435.846 312.272C433.795 314.14 432.803 317.502 432.803 322.606C432.803 330.649 435.185 341.829 437.964 354.802C441.305 370.514 445.11 388.317 445.11 403.78C445.11 415.857 442.827 424.896 438.129 431.395C435.582 434.93 432.538 438.889 429.296 443.048C414.97 461.623 397.105 484.73 397.105 504.302C397.138 511.598 399.686 517.922 404.714 523.102ZM439.022 431.793C443.786 425.169 446.135 416.006 446.135 403.83C446.135 388.317 442.331 370.489 438.989 354.727C436.243 341.804 433.861 330.624 433.861 322.656C433.861 317.751 434.788 314.514 436.673 312.795C436.706 312.77 436.773 312.721 436.971 312.696C442.198 312.397 472.834 332.666 505.322 354.105C546.578 381.37 593.325 412.246 606.525 413.616C613.903 414.363 619.494 412.047 624.92 409.806C630.743 407.391 636.235 405.125 643.745 406.37C649.567 407.316 652.81 409.931 656.25 412.67C660.75 416.255 665.414 419.965 676.034 420.065C680.203 420.115 687.283 417.799 695.488 415.135C703.097 412.67 711.699 409.856 719.109 408.636C727.81 407.217 733.402 408.237 736.181 411.748C736.743 412.47 737.041 413.217 737.041 413.94C737.041 422.555 696.612 429.079 674.876 432.565C667.565 433.735 662.305 434.582 660.253 435.204C620.487 447.057 579.463 471.26 541.02 495.637C510.417 515.034 463.273 536.647 431.049 533.709C420.231 532.713 411.629 529.003 405.475 522.653C400.579 517.599 398.131 511.448 398.131 504.352C398.131 485.004 415.897 461.972 430.189 443.471C433.431 439.313 436.475 435.354 439.022 431.793Z" fill="#2D5037"/>
<path d="M285.644 502.01C291.268 539.086 349.793 583.234 394.523 595.062C472.17 615.604 534.699 579.076 595.176 543.743C653.536 509.654 708.653 477.434 775.78 493.096C834.239 506.741 865.801 550.814 865.801 585.351C865.801 603.976 857.034 620.061 841.087 630.694C822.163 643.318 793.414 648.273 757.948 645.036C636.1 633.906 502.806 630.594 463.502 732.834C459.003 744.562 456.72 756.14 456.72 767.271C456.72 810.323 489.473 837.788 516.966 853.251C569.668 882.907 648.507 893.215 713.119 878.873C767.906 866.722 821.072 842.793 875.594 805.766C956.649 750.712 1026.32 675.713 1088.65 576.511L1091.37 572.228C1117.6 530.496 1144.73 487.344 1159.68 441.901C1160.58 439.212 1161.64 436.224 1162.76 433.037C1167.72 418.993 1173.88 401.538 1173.88 386.548C1173.88 380.548 1172.85 375.343 1170.83 371.11C1167.76 364.636 1161.87 361.001 1156.18 357.465C1151.94 354.826 1147.54 352.112 1144.4 348.227C1142.35 345.712 1139.83 340.782 1137.15 335.603C1132.85 327.187 1128.39 318.497 1124.09 315.757C1115.81 310.454 1110.85 311.923 1106.02 313.317C1102.58 314.338 1099.31 315.284 1094.44 314.039L1090.61 313.068C1061.13 305.524 1061.13 305.524 1054.44 288.143C1053.15 284.782 1051.53 280.599 1049.45 275.643C1043.39 261.326 1034.06 255.449 1025.03 249.772C1018.09 245.415 1011.53 241.281 1006.24 233.488C1006.27 233.288 1006.27 233.039 1006.27 232.79C1006.27 223.826 1000.32 155.849 978.12 150.62C972.132 149.226 965.648 152.264 958.799 159.709C950.231 169.021 949.238 176.068 949.238 180.575C949.238 182.766 949.503 184.758 949.734 186.675C949.933 188.319 950.131 189.863 950.131 191.332C950.131 196.81 948.08 202.338 923.234 209.907C917.114 211.775 912.118 213.219 907.95 214.414C887.504 220.291 887.239 220.49 878.77 235.405C876.686 239.115 874.072 243.722 870.466 249.573C858.688 268.796 845.322 272.73 828.383 277.71C819.451 280.35 809.294 283.338 797.88 288.99C785.672 295.041 775.846 302.137 766.351 309.01C749.511 321.186 733.598 332.69 707.032 336.35C661.012 342.699 617.077 323.9 576.45 302.635C556.732 292.326 533.805 271.137 509.522 248.702C468.299 210.604 421.552 167.428 378.279 167.278C353.565 167.179 334.608 171.959 321.904 181.471C308.075 191.83 301.359 207.567 301.359 229.603C301.359 261.55 315.684 300.792 328.289 335.429C338.214 362.694 346.816 386.25 346.816 401.289C346.816 404.701 346.353 407.589 345.459 409.855C339.736 424.372 327.495 435.875 315.651 447.031C299.936 461.796 285.115 475.765 285.115 495.71C285.148 497.827 285.313 499.918 285.644 502.01ZM347.709 410.428C348.702 407.938 349.165 404.974 349.165 401.364C349.165 386.075 340.53 362.42 330.572 335.03C318 300.494 303.708 261.351 303.708 229.653C303.708 208.114 310.192 192.776 323.558 182.766C335.799 173.603 354.194 168.996 378.279 169.071C420.46 169.22 466.844 212.049 507.735 249.847C532.118 272.382 555.144 293.646 575.127 304.104C616.184 325.568 660.615 344.567 707.462 338.093C734.723 334.333 750.868 322.655 767.972 310.304C777.401 303.482 787.161 296.435 799.17 290.484C810.386 284.931 820.377 281.968 829.243 279.378C846.679 274.249 860.408 270.19 872.583 250.345C876.189 244.469 878.803 239.837 880.92 236.127C889.092 221.735 889.092 221.735 908.81 216.058C912.978 214.862 918.007 213.418 924.128 211.551C947.849 204.305 952.48 198.652 952.48 191.357C952.48 189.813 952.282 188.219 952.05 186.526C951.819 184.659 951.554 182.716 951.554 180.6C951.554 175.968 952.58 169.544 960.685 160.73C966.872 153.982 972.496 151.168 977.393 152.313C996.68 156.845 1003.93 220.216 1003.93 232.815C1003.93 233.114 1003.93 233.313 1003.89 233.438L1004.95 233.637L1003.93 234.011C1009.48 242.277 1016.6 246.784 1023.51 251.117C1032.68 256.894 1041.34 262.347 1047.2 276.191C1049.28 281.121 1050.87 285.28 1052.16 288.641C1059.11 306.744 1059.47 306.968 1089.81 314.737L1093.65 315.708C1099.31 317.152 1103.28 315.982 1106.82 314.961C1111.38 313.616 1115.32 312.471 1122.53 317.102C1126.37 319.567 1130.93 328.432 1134.94 336.25C1137.65 341.529 1140.2 346.509 1142.35 349.173C1145.69 353.307 1150.22 356.121 1154.62 358.835C1160.31 362.37 1165.71 365.707 1168.55 371.708C1170.47 375.767 1171.46 380.772 1171.46 386.573C1171.46 401.339 1165.34 418.67 1160.41 432.614C1159.29 435.801 1158.23 438.789 1157.34 441.503C1142.45 486.771 1115.35 529.848 1089.18 571.506L1086.47 575.789C1024.31 674.767 954.796 749.592 873.973 804.496C819.715 841.348 766.847 865.153 712.392 877.229C648.441 891.422 570.429 881.238 518.289 851.881C491.226 836.642 458.97 809.601 458.97 767.296C458.97 756.34 461.22 744.935 465.686 733.357C504.46 632.437 636.696 635.748 757.617 646.804C793.744 650.116 823.123 645.011 842.543 632.038C858.986 621.082 868.018 604.524 868.018 585.4C868.018 550.242 835.893 505.372 776.342 491.477C708.091 475.541 649.896 509.53 593.621 542.423C533.64 577.457 471.608 613.712 395.151 593.468C351.051 581.79 293.32 538.314 287.794 501.861C287.497 499.819 287.331 497.802 287.331 495.835C287.331 476.487 301.921 462.768 317.371 448.226C329.48 436.921 341.853 425.268 347.709 410.428Z" fill="#2D5037"/>
</svg>
