<svg width="303" height="7" viewBox="0 0 303 7" fill="none" xmlns="http://www.w3.org/2000/svg">
<path d="M0 6.75971C0.151496 6.73603 0.311648 6.73264 0.450159 6.68866C0.991214 6.5195 1.46734 6.26913 1.8872 5.95111C2.76588 5.29137 3.5147 4.55043 4.17262 3.75198C4.76129 3.03811 5.41056 2.36822 6.16371 1.75246C6.76969 1.2585 7.47956 0.913406 8.3539 0.805141C9.55288 0.656278 10.5744 0.960773 11.4401 1.59683C12.3144 2.24303 13.033 2.99074 13.6909 3.77904C14.3401 4.5572 15.0673 5.27783 15.907 5.93757C16.7078 6.5601 17.6731 6.90857 18.7941 6.94579C19.9671 6.98301 21.006 6.68528 21.85 6.02554C22.6594 5.38948 23.3347 4.67561 23.919 3.90761C24.5033 3.1396 25.1656 2.41558 25.949 1.76599C27.3212 0.625828 29.5806 0.412682 31.1345 1.32955C31.6713 1.64419 32.1301 2.05019 32.5586 2.4528C32.9914 2.85879 33.3723 3.302 33.7359 3.74521C34.3506 4.49968 35.0518 5.19325 35.8698 5.82254C36.584 6.37063 37.4151 6.71573 38.3933 6.86121C39.562 7.03375 40.6874 6.94579 41.7695 6.56348C42.263 6.39093 42.6958 6.15072 43.0767 5.85637C43.9337 5.19664 44.6782 4.46585 45.3145 3.66739C45.8556 2.98736 46.4832 2.35807 47.1801 1.76599C48.7859 0.392382 51.5518 0.470198 53.0624 1.77614C53.8286 2.43926 54.5081 3.14975 55.0925 3.92114C55.6249 4.62148 56.2612 5.25753 56.9451 5.87329C58.5163 7.27735 61.3254 7.2875 63.0092 5.99509C63.8879 5.31843 64.654 4.57411 65.3249 3.76889C65.9223 3.04825 66.5975 2.37498 67.3593 1.75246C67.9653 1.2585 68.6795 0.91679 69.5538 0.808525C70.7528 0.656278 71.7743 0.964156 72.6357 1.60021C73.4884 2.2295 74.1809 2.96706 74.8172 3.73506C75.4751 4.53351 76.2153 5.28122 77.0897 5.94434C77.8774 6.54318 78.821 6.85782 79.9031 6.94241C79.9724 6.94917 80.0763 6.96271 80.1109 6.93564C80.3187 6.77324 80.5957 6.80708 80.8381 6.77324C81.7514 6.64806 82.5219 6.32327 83.1798 5.82593C84.0455 5.17295 84.7856 4.43878 85.4349 3.65048C86.0322 2.92984 86.6858 2.24303 87.452 1.62728C88.2744 0.964156 89.2569 0.588612 90.4646 0.666428C91.3649 0.723943 92.1224 1.02505 92.763 1.51225C93.6027 2.15507 94.3125 2.87909 94.9532 3.64371C95.6241 4.44893 96.3772 5.2034 97.2602 5.87329C98.6626 6.93902 100.779 7.13864 102.398 6.35372C102.688 6.21162 102.956 6.03231 103.199 5.84284C103.987 5.2237 104.636 4.52336 105.212 3.77566C105.813 2.99074 106.484 2.24303 107.307 1.58668C108.687 0.483731 110.955 0.311183 112.47 1.2382C113.055 1.59683 113.54 2.06034 114.02 2.50355C114.379 2.83849 114.687 3.21065 114.985 3.58281C115.634 4.38803 116.375 5.13235 117.266 5.78533C118.457 6.66159 119.885 6.91872 121.461 6.79016C122.768 6.68528 123.837 6.21839 124.716 5.46053C125.417 4.85831 126.062 4.22564 126.611 3.53206C127.152 2.85202 127.767 2.2092 128.481 1.63404C130.156 0.284117 132.753 0.311183 134.39 1.69494C135.164 2.3513 135.827 3.07532 136.411 3.84332C136.943 4.54366 137.58 5.17972 138.277 5.78871C139.809 7.13187 142.562 7.15555 144.215 5.92066C145.107 5.25753 145.877 4.51321 146.548 3.70799C147.163 2.97044 147.847 2.2701 148.626 1.63404C149.448 0.967539 150.427 0.591995 151.634 0.652894C152.487 0.696877 153.244 0.950623 153.833 1.42428C154.426 1.89794 154.976 2.40882 155.491 2.93661C156.01 3.46101 156.439 4.04294 156.958 4.56735C157.426 5.03762 157.936 5.4876 158.486 5.90036C160.049 7.07097 162.771 7.22322 164.55 5.86314C165.412 5.20679 166.16 4.47938 166.814 3.69108C167.403 2.98059 168.048 2.30393 168.796 1.68818C169.407 1.18407 170.121 0.828825 171.008 0.703643C171.744 0.598762 172.45 0.686727 173.103 0.950623C173.592 1.14685 174.021 1.41413 174.397 1.73216C175.151 2.35807 175.817 3.0381 176.415 3.75536C177.059 4.53351 177.8 5.25415 178.648 5.90374C179.47 6.53641 180.466 6.86121 181.604 6.86797C182.743 6.87812 183.751 6.57025 184.561 5.92066C185.361 5.28122 186.037 4.56396 186.625 3.79934C187.197 3.05164 187.85 2.35468 188.603 1.70848C189.378 1.04535 190.352 0.717177 191.473 0.683344C192.503 0.652894 193.43 0.91679 194.196 1.47503C195.066 2.11109 195.78 2.84526 196.403 3.63694C197.044 4.44893 197.797 5.1831 198.68 5.83946C199.464 6.418 200.394 6.72588 201.459 6.83076C202.485 6.93226 203.467 6.82738 204.415 6.50258C204.922 6.33003 205.368 6.08644 205.766 5.78194C206.623 5.1222 207.367 4.39142 208.004 3.59296C208.54 2.91969 209.151 2.29717 209.839 1.71524C210.579 1.08595 211.497 0.73071 212.574 0.69011C213.782 0.642745 214.842 0.957389 215.691 1.65096C216.5 2.31408 217.176 3.0584 217.79 3.83994C218.106 4.24255 218.448 4.63501 218.807 5.01394C219.08 5.30152 219.396 5.5688 219.703 5.83946C221.227 7.19277 224.019 7.19615 225.668 5.94096C226.551 5.26768 227.321 4.52675 227.992 3.72153C228.598 2.99074 229.278 2.30732 230.048 1.67803C230.633 1.20098 231.321 0.866041 232.156 0.744243C233.368 0.564929 234.407 0.862658 235.29 1.5021C236.182 2.15169 236.896 2.91969 237.554 3.71476C238.199 4.49291 238.922 5.2237 239.779 5.86652C240.177 6.16764 240.618 6.418 241.133 6.5804C241.398 6.66159 241.683 6.71234 241.952 6.79016C242.142 6.84429 242.393 6.78339 242.527 6.97286C242.549 7.00331 242.687 6.98977 242.774 6.98639C243.839 6.92887 244.748 6.60408 245.518 6.0323C246.41 5.36918 247.167 4.61471 247.834 3.80611C248.423 3.09224 249.072 2.41896 249.825 1.80659C250.44 1.30587 251.167 0.974306 252.058 0.852508C252.79 0.751009 253.461 0.879574 254.11 1.11302C254.604 1.28895 255.01 1.55623 255.378 1.86411C256.11 2.4731 256.768 3.13284 257.348 3.83317C258.019 4.64178 258.772 5.39287 259.659 6.06275C261.053 7.11157 263.161 7.31457 264.762 6.5398C265.065 6.39432 265.347 6.20485 265.598 6.00862C266.373 5.39963 267.018 4.70606 267.585 3.96851C268.173 3.2005 268.836 2.47986 269.615 1.82351C270.415 1.14685 271.424 0.825441 272.584 0.822058C273.549 0.818675 274.424 1.06904 275.146 1.59006C276.034 2.2295 276.757 2.97382 277.389 3.77228C278.025 4.58426 278.782 5.31843 279.665 5.97479C280.483 6.5804 281.462 6.89166 282.57 6.97624C283.552 7.05067 284.492 6.95594 285.396 6.64129C285.903 6.46536 286.348 6.22177 286.742 5.92066C287.599 5.26092 288.344 4.53013 288.98 3.73506C289.556 3.01442 290.201 2.34115 290.967 1.73554C291.785 1.09272 292.793 0.788226 293.936 0.825441C295.01 0.862658 295.949 1.18407 296.693 1.81336C297.494 2.48325 298.178 3.2208 298.775 4.00911C299.334 4.75004 299.996 5.43347 300.758 6.0526C301.368 6.54656 302.095 6.86121 303.013 6.95594C303.013 6.74618 303.013 6.54995 303.013 6.31988C302.931 6.29282 302.831 6.2556 302.727 6.23192C302.152 6.08982 301.667 5.83946 301.251 5.49436C300.559 4.91582 299.957 4.28653 299.442 3.60311C298.845 2.81481 298.135 2.09079 297.356 1.40736C295.564 -0.169242 292.166 -0.257207 290.3 1.32617C289.577 1.94192 288.902 2.58475 288.34 3.29862C287.721 4.07677 287.006 4.79741 286.158 5.43347C285.188 6.16087 284.024 6.41462 282.708 6.33003C281.522 6.25222 280.579 5.83608 279.791 5.15265C279.133 4.58088 278.531 3.97866 278.012 3.32568C277.423 2.58475 276.739 1.90471 275.96 1.2788C274.177 -0.152326 271.091 -0.203074 269.242 1.18407C268.333 1.86749 267.585 2.65241 266.94 3.50161C266.425 4.18165 265.827 4.81433 265.165 5.41317C263.802 6.64129 261.585 6.62776 260.144 5.51466C259.309 4.87184 258.607 4.14105 257.967 3.37305C257.326 2.60843 256.59 1.89794 255.764 1.24835C255.015 0.659661 254.127 0.301033 253.071 0.206302C251.695 0.0811205 250.509 0.405915 249.513 1.14347C248.76 1.70509 248.085 2.32423 247.514 3.00427C246.908 3.71814 246.293 4.42863 245.561 5.07145C245.068 5.50451 244.549 5.90712 243.843 6.12365C243.471 6.23868 243.112 6.28267 242.687 6.23868C241.536 6.1135 240.61 5.71428 239.896 5.01732C239.32 4.4557 238.749 3.88731 238.225 3.29523C237.545 2.52385 236.818 1.78291 235.978 1.10964C235.29 0.558162 234.459 0.196152 233.494 0.0980368C232.083 -0.0474439 230.797 0.213068 229.745 1.00476C228.867 1.66449 228.114 2.40543 227.447 3.2005C226.815 3.95836 226.114 4.67223 225.313 5.32858C224.646 5.87667 223.82 6.18794 222.867 6.22515C221.885 6.26237 221.037 5.97817 220.348 5.41655C219.604 4.81433 218.976 4.14105 218.431 3.42042C217.855 2.66256 217.158 1.97237 216.418 1.30925C215.033 0.0675874 212.709 -0.240291 210.834 0.368699C210.311 0.537863 209.856 0.798376 209.458 1.1164C208.674 1.73554 207.986 2.4122 207.398 3.15652C206.779 3.93467 206.069 4.65869 205.22 5.29475C204.22 6.0526 203.013 6.31312 201.649 6.20485C200.55 6.11689 199.658 5.73119 198.909 5.1019C198.208 4.51321 197.585 3.88392 197.04 3.2005C196.455 2.46971 195.784 1.79644 195.018 1.1773C194.109 0.443131 193.001 0.0912704 191.694 0.0743542C190.157 0.0540543 188.893 0.487114 187.868 1.38368C187.153 2.00959 186.508 2.66933 185.967 3.38997C185.431 4.10045 184.816 4.76696 184.102 5.37595C183.418 5.95449 182.561 6.2556 181.561 6.22515C180.622 6.19809 179.804 5.90036 179.137 5.36918C178.362 4.74328 177.678 4.06324 177.068 3.33245C176.38 2.51031 175.605 1.73893 174.7 1.05212C173.895 0.443131 172.93 0.0675874 171.813 0.0303712C170.601 -0.0102277 169.511 0.290884 168.615 0.950623C167.697 1.62728 166.914 2.3919 166.234 3.2208C165.637 3.95497 164.953 4.63839 164.187 5.27107C162.576 6.59731 160.187 6.38417 158.837 5.27445C158.088 4.65869 157.417 3.99896 156.828 3.28508C156.149 2.45618 155.37 1.68818 154.469 0.997989C153.591 0.3281 152.526 -0.00684452 151.305 0.0134549C150.184 0.0303712 149.189 0.331483 148.371 0.940473C147.457 1.61713 146.682 2.38852 145.994 3.21404C145.375 3.95159 144.691 4.64854 143.908 5.2846C143.22 5.84284 142.38 6.15749 141.376 6.1744C140.415 6.19132 139.605 5.90712 138.939 5.37257C138.203 4.77711 137.584 4.11399 137.043 3.4035C136.446 2.6152 135.731 1.89456 134.948 1.21452C133.178 -0.324872 129.814 -0.419605 127.958 1.14347C127.226 1.75584 126.551 2.39867 125.988 3.11254C125.369 3.89407 124.655 4.61133 123.815 5.25415C123.036 5.84961 122.101 6.14395 121.019 6.18117C119.608 6.23192 118.426 5.85976 117.47 5.03762C116.79 4.45231 116.167 3.83317 115.63 3.1599C115.054 2.43926 114.375 1.78629 113.639 1.16039C111.825 -0.382389 108.48 -0.341789 106.67 1.16715C105.878 1.82689 105.173 2.53738 104.584 3.31892C104.065 4.00911 103.459 4.65193 102.783 5.26092C101.42 6.49581 99.1561 6.4586 97.7277 5.32858C96.9139 4.68238 96.2171 3.96512 95.5851 3.21065C94.9012 2.39867 94.1264 1.64081 93.2261 0.970922C92.5812 0.490497 91.8194 0.196152 90.945 0.0777369C89.495 -0.118493 88.2311 0.192769 87.1663 0.970922C86.2573 1.63404 85.4912 2.39867 84.8203 3.2208C84.2229 3.95497 83.5434 4.64178 82.7686 5.26768C82.1106 5.79886 81.3185 6.10674 80.3749 6.17779C80.3187 6.18117 80.2364 6.16764 80.2061 6.19132C79.9161 6.40785 79.6045 6.26237 79.3188 6.21162C78.6436 6.08982 78.0722 5.81239 77.5874 5.42332C76.8256 4.81771 76.159 4.15459 75.5747 3.44072C74.9254 2.64903 74.1853 1.91824 73.3499 1.24497C72.3673 0.453281 71.1813 0.0743537 69.7702 0.155552C68.7617 0.213068 67.8657 0.500647 67.1256 1.04535C66.2166 1.71186 65.4461 2.4731 64.7666 3.28508C64.126 4.0497 63.4161 4.77711 62.6023 5.43347C61.9661 5.95111 61.1783 6.24883 60.2736 6.29958C59.2391 6.3571 58.3561 6.06275 57.6376 5.47406C56.9364 4.89891 56.3347 4.26962 55.8197 3.5862C55.2526 2.83511 54.5817 2.14492 53.8545 1.48856C52.7205 0.463431 51.2748 0.0405211 49.5737 0.162319C48.5435 0.236751 47.6216 0.54463 46.8728 1.12317C46.046 1.75923 45.3275 2.46295 44.7172 3.23095C44.0982 4.00911 43.3884 4.73313 42.5443 5.36918C41.5185 6.14734 40.2805 6.40108 38.8868 6.27252C37.8393 6.1744 36.9823 5.80224 36.2637 5.2034C35.5712 4.62486 34.9479 4.00572 34.4112 3.33583C33.8268 2.60843 33.1429 1.94192 32.4071 1.30587C30.5935 -0.263974 27.2086 -0.223374 25.4037 1.28895C24.6116 1.95207 23.9017 2.65918 23.3173 3.44072C22.7979 4.13429 22.192 4.77711 21.5167 5.38272C20.1316 6.621 17.9111 6.58716 16.4654 5.45038C15.669 4.82448 14.9851 4.12752 14.3704 3.38658C13.7212 2.60843 12.9853 1.88779 12.15 1.22805C11.4834 0.703643 10.7043 0.345016 9.76065 0.209685C8.28032 -0.00346136 6.98611 0.2875 5.89535 1.08934C4.98637 1.75584 4.22024 2.51708 3.54933 3.33922C2.91305 4.07 2.22049 4.77711 1.4154 5.40978C1.01719 5.72104 0.575684 5.99509 0 6.08305C0 6.30973 0 6.53641 0 6.75971Z" fill="#248742"/>
</svg>
