<svg width="24" height="24" viewBox="0 0 24 24" fill="none" xmlns="http://www.w3.org/2000/svg">
    <path d="M0 11.52C0 6.088 0 3.376 1.68 1.68C3.384 0 6.096 0 11.52 0H12.48C17.912 0 20.624 0 22.32 1.68C24 3.384 24 6.096 24 11.52V12.48C24 17.912 24 20.624 22.32 22.32C20.616 24 17.904 24 12.48 24H11.52C6.088 24 3.376 24 1.68 22.32C0 20.616 0 17.904 0 12.48V11.52Z" fill="#0077FF"/>
    <path d="M12.7688 17.288C7.29683 17.288 4.17683 13.544 4.04883 7.30402H6.80083C6.88883 11.88 8.90483 13.816 10.5048 14.216V7.30402H13.0888V11.248C14.6648 11.08 16.3288 9.28002 16.8888 7.29602H19.4648C19.2548 8.32303 18.8352 9.2957 18.2323 10.1532C17.6294 11.0108 16.8561 11.7348 15.9608 12.28C16.96 12.7773 17.8423 13.4808 18.5498 14.344C19.2572 15.2072 19.7735 16.2106 20.0648 17.288H17.2248C16.6168 15.392 15.0968 13.92 13.0888 13.72V17.288H12.7768H12.7688Z" fill="white"/>
</svg>
