<svg width="24" height="24" viewBox="0 0 24 24" fill="none" xmlns="http://www.w3.org/2000/svg">
<path fill-rule="evenodd" clip-rule="evenodd" d="M23.7446 12.2728C23.7446 11.4219 23.6683 10.6037 23.5265 9.81824H12.2246V14.4601H18.6828C18.4046 15.9601 17.5592 17.231 16.2883 18.0819V21.0928H20.1664C22.4355 19.0037 23.7446 15.9273 23.7446 12.2728Z" fill="#4285F4"/>
<path fill-rule="evenodd" clip-rule="evenodd" d="M12.2237 23.9999C15.4637 23.9999 18.18 22.9254 20.1655 21.0926L16.2873 18.0817C15.2128 18.8017 13.8382 19.2272 12.2237 19.2272C9.0982 19.2272 6.45274 17.1163 5.5091 14.2799H1.5V17.389C3.47455 21.3108 7.53274 23.9999 12.2237 23.9999Z" fill="#34A853"/>
<path fill-rule="evenodd" clip-rule="evenodd" d="M5.51007 14.2799C5.27007 13.5599 5.13371 12.7909 5.13371 11.9999C5.13371 11.209 5.27007 10.4399 5.51007 9.71994V6.61084H1.50098C0.688247 8.23084 0.224609 10.0636 0.224609 11.9999C0.224609 13.9363 0.688247 15.769 1.50098 17.389L5.51007 14.2799Z" fill="#FBBC05"/>
<path fill-rule="evenodd" clip-rule="evenodd" d="M12.2237 4.77274C13.9855 4.77274 15.5673 5.37819 16.8109 6.56729L20.2528 3.12546C18.1746 1.18909 15.4582 0 12.2237 0C7.53274 0 3.47455 2.6891 1.5 6.61092L5.5091 9.72002C6.45274 6.88365 9.0982 4.77274 12.2237 4.77274Z" fill="#EA4335"/>
</svg>
