<svg width="19" height="22" viewBox="0 0 19 22" fill="none" xmlns="http://www.w3.org/2000/svg">
    <path d="M9.09765 11.6236C8.74966 11.6249 8.41174 11.7405 8.13585 11.9526C7.85996 12.1647 7.66137 12.4616 7.5706 12.7975C7.47983 13.1335 7.50192 13.4899 7.63346 13.8121C7.765 14.1343 7.99872 14.4043 8.29868 14.5807V16.8461H9.91611V14.5807C10.1534 14.4404 10.3504 14.241 10.4878 14.0019C10.6253 13.7629 10.6985 13.4924 10.7005 13.2166V13.2166C10.7005 13.0066 10.6589 12.7987 10.5783 12.6047C10.4976 12.4108 10.3794 12.2348 10.2304 12.0867C10.0815 11.9386 9.90469 11.8215 9.71029 11.742C9.51588 11.6625 9.30768 11.6223 9.09765 11.6236V11.6236Z" stroke="#6DC682" stroke-linecap="round" stroke-linejoin="round"/>
    <path d="M15.0844 7.96484H3.10462C1.94227 7.96484 1 8.90711 1 10.0695V18.3954C1 19.5577 1.94227 20.5 3.10462 20.5H15.0844C16.2467 20.5 17.189 19.5577 17.189 18.3954V10.0695C17.189 8.90711 16.2467 7.96484 15.0844 7.96484Z" stroke="#6DC682" stroke-width="2" stroke-linecap="round" stroke-linejoin="round"/>
    <path d="M3.9082 7.96487V6.69333C3.9082 5.31598 4.45536 3.99503 5.4293 3.02109C6.40323 2.04715 7.72418 1.5 9.10154 1.5C10.4789 1.5 11.7998 2.04715 12.7738 3.02109C13.7477 3.99503 14.2949 5.31598 14.2949 6.69333V7.96487" stroke="#6DC682" stroke-width="2" stroke-linecap="round" stroke-linejoin="round"/>
</svg>
