<svg width="115" height="82" viewBox="0 0 115 82" fill="none" xmlns="http://www.w3.org/2000/svg">
<path fill-rule="evenodd" clip-rule="evenodd" d="M100.429 18.0235H85.9621V24.771H100.429V18.0235ZM82.3737 46.3495C82.3737 32.4016 71.0635 21.6237 57.4368 21.6237C43.4466 21.6237 32.1364 32.4016 32.1364 46.3495C32.1364 60.3652 43.4466 71.6413 57.4368 71.6413C71.0635 71.6186 82.3737 60.3426 82.3737 46.3495ZM75.0834 46.3495C75.0834 56.3349 66.9301 64.373 57.4368 64.373C47.4892 64.373 39.3586 56.3349 39.3586 46.3495C39.3586 36.4999 47.5119 28.3939 57.4368 28.3939C66.9528 28.3712 75.0834 36.4999 75.0834 46.3495ZM99.9295 10.7779C98.1353 9.91747 96.7499 8.55891 95.8869 6.7475L94.5242 4.95874C92.7528 2.21898 89.0735 0 85.9621 0H66.0897C62.9102 0 58.8221 2.21898 57.0052 4.95874L55.6426 6.7475C54.7795 8.53627 52.8945 9.91747 51.1685 10.7779H40.7213H35.7475H14.0583H6.76795C3.17958 10.7779 0 13.9479 0 18.0235V75.2188C0 78.819 3.17958 81.9663 6.76795 81.9663H107.651C111.262 81.9663 114.942 78.7963 114.942 75.2188V18.0235C114.942 13.9252 111.262 10.7552 107.651 10.7552H99.9295V10.7779ZM22.1889 7.17771C22.1889 4.52853 19.8723 2.21898 17.2151 2.21898H12.2414C9.51602 2.21898 7.2676 4.52853 7.2676 7.17771V8.96648H22.1889V7.17771Z" fill="#C6C6C6"/>
</svg>
