<svg width="43" height="30" viewBox="0 0 43 30" fill="none" xmlns="http://www.w3.org/2000/svg">
<path fill-rule="evenodd" clip-rule="evenodd" d="M36.7162 6.58928H31.4271V9.05612H36.7162V6.58928ZM30.1153 16.945C30.1153 11.8458 25.9803 7.90548 20.9985 7.90548C15.8838 7.90548 11.7489 11.8458 11.7489 16.945C11.7489 22.0691 15.8838 26.1916 20.9985 26.1916C25.9803 26.1833 30.1153 22.0608 30.1153 16.945ZM27.45 16.945C27.45 20.5956 24.4692 23.5343 20.9985 23.5343C17.3617 23.5343 14.3892 20.5956 14.3892 16.945C14.3892 13.3441 17.37 10.3806 20.9985 10.3806C24.4775 10.3723 27.45 13.3441 27.45 16.945ZM36.5335 3.94032C35.8776 3.62576 35.3711 3.12908 35.0556 2.46684L34.5574 1.81288C33.9098 0.811243 32.5647 0 31.4271 0H24.162C22.9995 0 21.505 0.811243 20.8407 1.81288L20.3425 2.46684C20.027 3.1208 19.3379 3.62576 18.7068 3.94032H14.8874H13.069H5.1396H2.47432C1.16243 3.94032 0 5.09924 0 6.58928V27.4995C0 28.8157 1.16243 29.9663 2.47432 29.9663H39.3566C40.6768 29.9663 42.0219 28.8074 42.0219 27.4995V6.58928C42.0219 5.09096 40.6768 3.93204 39.3566 3.93204H36.5335V3.94032ZM8.11211 2.62412C8.11211 1.6556 7.26519 0.811243 6.29373 0.811243H4.47536C3.47899 0.811243 2.65698 1.6556 2.65698 2.62412V3.27808H8.11211V2.62412Z" fill="#C6C6C6"/>
</svg>
