<svg width="51" height="51" viewBox="0 0 51 51" fill="none" xmlns="http://www.w3.org/2000/svg">
<g clip-path="url(#clip0_718_500)">
<path d="M23.7868 0C24.9206 0 26.0421 0 27.176 0C27.799 0.074707 28.422 0.136963 29.045 0.236572C33.6304 0.921387 37.7797 2.6521 41.3932 5.56567C46.3648 9.57495 49.4425 14.7297 50.6013 21.0176C50.7758 21.939 50.8754 22.8728 51 23.8066C51 24.9397 51 26.0603 51 27.1934C50.9627 27.3552 50.9253 27.5046 50.9004 27.6665C50.7508 28.6999 50.6761 29.7458 50.4643 30.7668C49.131 36.8555 46.0284 41.8733 41.0817 45.6833C35.4122 50.0413 28.9702 51.6848 21.9053 50.7634C17.7061 50.2156 13.8434 48.6965 10.4667 46.1191C2.47965 40.0181 -0.946932 31.9124 0.211876 21.9514C0.747669 17.3071 2.62917 13.1609 5.58226 9.52515C9.59448 4.59448 14.7281 1.54395 20.9957 0.398437C21.9177 0.236572 22.8522 0.136963 23.7868 0ZM25.444 47.0156C37.2813 46.9907 46.9629 37.5278 47.0003 25.5623C47.0377 13.7212 37.518 4.02173 25.5187 3.99683C13.6815 3.97192 3.99981 13.4722 3.96243 25.4377C3.92504 37.2788 13.4572 46.9285 25.444 47.0156Z" fill="#B3B3B4"/>
<path d="M27.4758 28.5131C27.4758 29.559 27.4758 30.5925 27.4758 31.6135C27.4758 32.8212 26.6285 33.7177 25.4946 33.7302C24.3607 33.7426 23.4885 32.8212 23.4885 31.601C23.4885 30.0073 23.4885 28.4135 23.4885 26.8198C23.4885 25.6992 24.1365 24.9023 25.2579 24.7778C26.3046 24.6533 27.2765 24.454 28.0988 23.7443C29.3573 22.6362 29.8059 20.7685 29.1455 19.2121C28.4477 17.5935 26.778 16.6472 24.9464 16.8339C23.3888 17.0082 21.931 18.3405 21.6195 19.9094C21.5572 20.2331 21.5323 20.5693 21.5073 20.893C21.4326 21.9514 20.5105 22.7856 19.4888 22.7607C18.4047 22.7358 17.545 21.8642 17.5325 20.781C17.4577 16.7094 20.7348 13.1608 24.7844 12.8122C28.8215 12.4636 32.5098 15.1904 33.3446 19.1997C34.1545 23.072 31.7995 27.1061 27.9867 28.3513C27.8123 28.4011 27.6503 28.4509 27.4758 28.5131Z" fill="#B3B3B4"/>
<path d="M22.9883 37.6896C22.9883 36.3199 24.1346 35.1869 25.4928 35.1993C26.8634 35.2118 27.9724 36.3448 27.9724 37.7145C27.9724 39.0841 26.8261 40.2171 25.4679 40.2047C24.0972 40.1922 22.9883 39.0592 22.9883 37.6896Z" fill="#B3B3B4"/>
</g>
<defs>
<clipPath id="clip0_718_500">
<rect width="51" height="51" fill="white"/>
</clipPath>
</defs>
</svg>
