<svg width="16" height="17" viewBox="0 0 16 17" fill="none" xmlns="http://www.w3.org/2000/svg">
<path d="M6.96867 1.60515C6.96867 1.4718 6.96867 1.34833 6.96867 1.20016C6.65404 1.20016 6.34425 1.2051 6.02962 1.20016C5.73435 1.19522 5.51653 1.02236 5.43908 0.745779C5.35195 0.424749 5.56009 0.079023 5.8844 0.0197557C5.94733 0.00987787 6.0151 0 6.08286 0C7.06063 0 8.04325 0 9.02102 0C9.30177 0 9.51959 0.0987787 9.63576 0.365481C9.80518 0.755657 9.52927 1.18534 9.09363 1.19522C8.779 1.2051 8.46437 1.19522 8.14006 1.19522C8.14006 1.33351 8.14006 1.46193 8.14006 1.60022C10.5748 1.86692 12.511 3.00287 13.876 5.09204C14.8828 6.63793 15.2652 8.36162 15.0522 10.2038C14.5876 14.1994 11.1315 17.2863 6.98319 16.9751C3.27055 16.6985 0.230744 13.6562 0.0129235 9.7297C-0.224259 5.56124 2.83007 1.97064 6.96867 1.60515ZM7.54468 2.78062C4.01114 2.79544 1.14559 5.72917 1.16011 9.30989C1.17947 12.9104 4.04987 15.8145 7.57372 15.8046C10.9862 15.7997 13.9341 12.9845 13.9341 9.27532C13.9389 5.67978 11.0492 2.7658 7.54468 2.78062Z" fill="#8C8C8C"/>
<path d="M8.13537 8.69262C8.21766 8.69262 8.28542 8.69262 8.34835 8.69262C9.1083 8.69262 9.8731 8.68768 10.633 8.69262C10.9332 8.69262 11.1703 8.89511 11.2187 9.17169C11.272 9.46803 11.1316 9.73967 10.8654 9.84339C10.7734 9.87796 10.6669 9.89278 10.5653 9.89278C9.59235 9.89772 8.61942 9.88784 7.64648 9.89772C7.21568 9.90266 6.96398 9.60632 6.96882 9.19639C6.98818 7.91227 6.97366 6.63308 6.97366 5.34896C6.97366 5.0378 7.17696 4.80074 7.46739 4.76122C7.76265 4.72171 8.02404 4.8847 8.11117 5.17609C8.13537 5.25018 8.13537 5.33414 8.13537 5.41316C8.13537 6.43058 8.13537 7.448 8.13537 8.46543C8.13537 8.52469 8.13537 8.59384 8.13537 8.69262Z" fill="#8C8C8C"/>
</svg>
