<svg width="12" height="18" viewBox="0 0 12 18" fill="none" xmlns="http://www.w3.org/2000/svg">
<path d="M11.8709 4.78984C11.632 3.71073 11.1509 2.75956 10.4064 1.95126C9.39036 0.849723 8.14109 0.210897 6.67002 0.0414294C5.50067 -0.0939785 4.37698 0.101241 3.32506 0.646196C1.75287 1.46114 0.709916 2.73463 0.22554 4.46586C0.00618492 5.25006 -0.0835143 6.05171 0.0950687 6.86C0.422879 8.33952 1.01489 9.7152 1.75369 11.0203C3.04699 13.3064 4.37861 15.5701 5.69312 17.8438C5.72166 17.8928 5.74041 17.9477 5.76406 18C5.77548 18 5.78689 18 5.79831 18C5.82522 17.9493 5.8505 17.897 5.88067 17.848C7.36478 15.4181 8.85216 12.9907 10.3306 10.5584C10.8728 9.66702 11.3254 8.72913 11.6801 7.7414C12.0283 6.77361 12.0927 5.79252 11.8709 4.78984Z" fill="#8C8C8C"/>
</svg>
