<svg width="93" height="15" viewBox="0 0 93 15" fill="none" xmlns="http://www.w3.org/2000/svg">
<path fill-rule="evenodd" clip-rule="evenodd" d="M6.72781 0.199219H10.9958V5.4135C11.0912 5.17021 11.2079 4.93497 11.3466 4.70866L11.3489 4.70486C11.8066 3.96555 12.4281 3.38599 13.1983 2.97704C13.9866 2.554 14.8661 2.35522 15.8112 2.35522C16.7479 2.35522 17.6213 2.55442 18.4073 2.97554C19.184 3.38237 19.8097 3.95708 20.2618 4.69466C20.3272 4.80138 20.3877 4.91014 20.4433 5.02085V2.46722H25.2933C26.3386 2.46722 27.2905 2.65553 28.0447 3.14311C28.5808 3.48321 28.9581 3.94356 29.1523 4.49553V2.46722H33.3223V5.14731L35.5166 2.46722H40.7018V2.29209L40.872 2.46722H44.7015L44.8718 2.29209V2.46722H50.656V2.54453C51.087 2.41523 51.5451 2.35522 52.0219 2.35522C52.8878 2.35522 53.6964 2.55573 54.4214 2.97651C55.1488 3.38399 55.7244 3.96212 56.1378 4.69232C56.1764 4.75905 56.2132 4.82659 56.2481 4.89492C56.28 4.83563 56.3132 4.77691 56.3479 4.71876L56.3503 4.71472C56.7969 3.9745 57.408 3.39267 58.1693 2.98155C58.9379 2.55711 59.7918 2.35522 60.7067 2.35522C61.589 2.35522 62.4148 2.54577 63.1612 2.94669C63.9242 3.34202 64.5311 3.92116 64.969 4.66542C65.1001 4.88545 65.2103 5.11529 65.3008 5.35389V2.46722H70.1507C71.196 2.46722 72.1478 2.6555 72.9019 3.14298C73.5003 3.5225 73.9008 4.05178 74.0698 4.69104C74.515 3.96208 75.1212 3.38827 75.8744 2.98155C76.643 2.55711 77.4969 2.35522 78.4117 2.35522C79.2941 2.35522 80.1199 2.54577 80.8663 2.94669C81.6293 3.34202 82.2361 3.92116 82.674 4.66542C83.128 5.42743 83.3317 6.30698 83.3317 7.26122C83.3317 7.38038 83.3252 7.50722 83.3143 7.63827L83.3137 7.64576C83.304 7.75112 83.2944 7.85212 83.2848 7.94872L83.259 8.20635L83.3478 8.22122H83.3714C83.3837 8.19535 83.3977 8.16082 83.4114 8.11531C83.4645 7.9279 83.5057 7.70052 83.5291 7.42782L83.5303 7.41373L83.5319 7.39967C83.5665 7.09708 83.5928 6.77932 83.6105 6.44616L83.7578 2.46722H87.1705L87.7809 1.7273L87.7425 2.46722H87.9775V2.16544L88.2554 2.46722H92.1615V11.9992H87.9775V6.25922H87.5459L87.5266 6.63085C87.5265 6.63261 87.5265 6.63438 87.5264 6.63614C87.4972 7.33242 87.4389 7.98025 87.3496 8.57775C87.2656 9.20285 87.1204 9.77824 86.8995 10.2897L86.8962 10.2974C86.6618 10.8278 86.3255 11.2877 85.8675 11.6312L85.8593 11.6373L85.8511 11.6432C85.3416 12.0095 84.739 12.1532 84.1195 12.1532C83.8962 12.1532 83.669 12.1346 83.4391 12.1002C83.212 12.0661 82.9762 12.0163 82.733 11.9528L81.936 11.7449L81.9767 11.0949C81.647 11.3527 81.2791 11.5634 80.8776 11.7282L80.8705 11.7312L80.8634 11.734C80.2023 11.9937 79.4723 12.1112 78.6917 12.1112C77.7008 12.1112 76.7833 11.9166 75.9664 11.4965L75.9612 11.4938C75.2371 11.116 74.6411 10.6008 74.1959 9.94758C74.0107 10.4429 73.6897 10.8753 73.2335 11.2217C72.4756 11.797 71.4453 11.9992 70.3187 11.9992H65.3008V10.0369L64.845 10.5543C64.39 11.0708 63.8255 11.4601 63.1726 11.7282L63.1655 11.7312L63.1583 11.734C62.4972 11.9937 61.7672 12.1112 60.9867 12.1112C59.9957 12.1112 59.0782 11.9166 58.2613 11.4965L58.2561 11.4938C57.4632 11.0801 56.824 10.5018 56.368 9.75778L56.3643 9.75173C56.3273 9.69037 56.2919 9.62841 56.258 9.56586C56.2202 9.64093 56.1801 9.71501 56.1378 9.78809C55.7233 10.5203 55.1457 11.0996 54.4155 11.5072C53.6911 11.9169 52.8846 12.1112 52.0219 12.1112C51.5815 12.1112 51.1568 12.0563 50.754 11.9406V14.7152H46.57V6.25922H44.8718V11.9992H40.7018V6.25922H38.9923V11.9992H34.8223V9.32742L32.6431 11.9992H29.1523V10.346C28.9642 10.6769 28.7053 10.9717 28.376 11.2217C27.6182 11.797 26.5879 11.9992 25.4613 11.9992H20.4433V9.42844C20.3887 9.53794 20.3294 9.64572 20.2655 9.75171L20.2618 9.7578C19.8103 10.4944 19.1863 11.0723 18.4125 11.4881C17.6252 11.9111 16.75 12.1112 15.8112 12.1112C14.8652 12.1112 13.9848 11.912 13.1959 11.4881L13.1903 11.4851C12.4284 11.0695 11.8102 10.4949 11.3527 9.76767L11.3477 9.75974L11.3429 9.75171C11.206 9.52478 11.0905 9.28963 10.9958 9.04702V11.9992H6.72781V7.98122H4.27581V11.9992H0.0078125V0.199219H4.27581V4.06322H6.72781V0.199219ZM7.72781 5.06322H3.27581V1.19922H1.00781V10.9992H3.27581V6.98122H7.72781V10.9992H9.99581V1.19922H7.72781V5.06322ZM29.1523 7.37387V6.34899C29.0779 6.56505 28.9765 6.76831 28.8489 6.95701C28.9656 7.08735 29.0666 7.22671 29.1523 7.37387ZM28.1444 7.67169C28.1037 7.62235 28.0597 7.57519 28.0125 7.53022C28.0089 7.52681 28.0053 7.5234 28.0017 7.52001C27.9518 7.47336 27.8983 7.42909 27.8413 7.38722C27.6651 7.25503 27.4527 7.14885 27.2042 7.06867C27.3262 7.01023 27.4406 6.94374 27.5473 6.86922C27.7625 6.71783 27.9317 6.54262 28.055 6.34362C28.2205 6.07641 28.3033 5.76628 28.3033 5.41322C28.3033 4.79722 28.0373 4.32122 27.5053 3.98522C26.9733 3.63989 26.236 3.46722 25.2933 3.46722H21.4433V10.9992H25.4613C26.4973 10.9992 27.2673 10.8079 27.7713 10.4252C28.2753 10.0426 28.5273 9.51989 28.5273 8.85722C28.5273 8.37608 28.3997 7.98091 28.1444 7.67169ZM25.9513 5.14722C25.7647 5.01655 25.48 4.95122 25.0973 4.95122H23.4453V6.56122H25.0973C25.2778 6.56122 25.4365 6.54565 25.5733 6.51452C25.6559 6.49573 25.7306 6.47126 25.7973 6.44113C25.8415 6.42118 25.8822 6.39875 25.9194 6.37382C25.9304 6.3665 25.941 6.35897 25.9513 6.35122C26.1091 6.23853 26.2034 6.08655 26.2341 5.89525C26.2416 5.84889 26.2453 5.80021 26.2453 5.74922C26.2453 5.47855 26.1473 5.27789 25.9513 5.14722ZM26.2033 8.05922C26.0582 7.95038 25.8482 7.88384 25.5733 7.85962C25.4946 7.85269 25.4106 7.84922 25.3213 7.84922H23.4453V9.51522H25.2793C25.6807 9.51522 25.9793 9.44989 26.1753 9.31922C26.3807 9.17922 26.4833 8.96922 26.4833 8.68922C26.4833 8.55109 26.4621 8.43104 26.4195 8.32908C26.3729 8.21746 26.3009 8.1275 26.2033 8.05922ZM35.8223 6.51922V10.9992H37.9923V3.46722H35.9903L32.3223 7.94722V3.46722H30.1523V10.9992H32.1683L35.8223 6.51922ZM41.7018 5.25922V10.9992H43.8718V5.25922H46.4198V3.46722H39.1538V5.25922H41.7018ZM49.754 10.2018C49.932 10.3967 50.1327 10.5599 50.3559 10.6912C50.483 10.7659 50.6156 10.8307 50.754 10.8855C51.134 11.036 51.5566 11.1112 52.0219 11.1112C52.7313 11.1112 53.366 10.9526 53.9259 10.6352C54.4953 10.3179 54.9433 9.86989 55.27 9.29122C55.5069 8.88307 55.6603 8.42154 55.7302 7.9066C55.7594 7.69146 55.7739 7.467 55.7739 7.23322C55.7739 6.99887 55.7589 6.77368 55.7289 6.55768C55.6585 6.05106 55.5055 5.59491 55.27 5.18922C54.9433 4.61055 54.4953 4.16255 53.9259 3.84522C53.366 3.51855 52.7313 3.35522 52.0219 3.35522C51.5112 3.35522 51.0558 3.4384 50.656 3.60476C50.537 3.65422 50.423 3.71104 50.3139 3.77522C50.0636 3.92246 49.8443 4.10969 49.656 4.33694V3.46722H47.57V13.7152H49.754V10.2018ZM49.9163 6.23756C49.7894 6.5201 49.726 6.85199 49.726 7.23322C49.726 7.23554 49.726 7.23786 49.726 7.24017C49.726 7.24323 49.726 7.24627 49.726 7.24932C49.7278 7.62193 49.7933 7.95209 49.9225 8.23978C49.9399 8.27836 49.9583 8.31617 49.978 8.35322C50.146 8.66122 50.3746 8.89922 50.664 9.06722C50.6867 9.08041 50.7096 9.09308 50.7328 9.10523C51.0048 9.24789 51.3085 9.31922 51.644 9.31922C52.0079 9.31922 52.3299 9.23522 52.61 9.06722C52.8993 8.89922 53.128 8.66122 53.296 8.35322C53.4733 8.03589 53.562 7.66255 53.562 7.23322C53.562 6.79455 53.4733 6.42122 53.296 6.11322C53.128 5.80522 52.8993 5.56722 52.61 5.39922C52.3299 5.23122 52.0079 5.14722 51.644 5.14722C51.28 5.14722 50.9533 5.23122 50.664 5.39922C50.6588 5.4022 50.6537 5.4052 50.6486 5.40823C50.3665 5.57569 50.143 5.81068 49.978 6.11322C49.956 6.15355 49.9354 6.19499 49.9163 6.23756ZM50.8589 7.88001C50.7823 7.73287 50.726 7.52764 50.726 7.23322C50.726 6.92069 50.7856 6.72084 50.8559 6.59207C50.9407 6.4365 51.0428 6.33559 51.1661 6.26401C51.2896 6.19227 51.4403 6.14722 51.644 6.14722C51.8481 6.14722 51.9882 6.19237 52.0955 6.25671L52.1016 6.26041L52.1078 6.26401C52.2311 6.33559 52.3332 6.4365 52.4181 6.59207L52.4236 6.60219L52.4293 6.61218C52.501 6.73666 52.562 6.92899 52.562 7.23322C52.562 7.52278 52.5031 7.72207 52.423 7.86537L52.4181 7.87437C52.3332 8.02994 52.2311 8.13085 52.1078 8.20243L52.1016 8.20603L52.0955 8.20973C51.9882 8.27407 51.8481 8.31922 51.644 8.31922C51.4403 8.31922 51.2896 8.27417 51.1661 8.20243C51.0443 8.13171 50.9432 8.03238 50.8589 7.88001ZM56.7386 7.89748C56.814 8.38154 56.9747 8.82746 57.2207 9.23522C57.5753 9.81389 58.0747 10.2712 58.7187 10.6072C59.372 10.9432 60.128 11.1112 60.9867 11.1112C61.668 11.1112 62.27 11.0086 62.7927 10.8032C62.9821 10.7254 63.1599 10.636 63.326 10.5348C63.4205 10.4773 63.5113 10.4161 63.5982 10.351C63.7802 10.2149 63.9457 10.0623 64.0947 9.89322L62.9327 8.63322C62.9027 8.66203 62.8724 8.68998 62.8417 8.71707C62.789 8.76365 62.735 8.8077 62.6799 8.84922C62.497 8.98704 62.3013 9.09705 62.0927 9.17922C61.794 9.30055 61.444 9.36122 61.0427 9.36122C60.5947 9.36122 60.2027 9.28189 59.8667 9.12322C59.7175 9.04649 59.5829 8.95515 59.4629 8.84922C59.3201 8.72321 59.1981 8.57655 59.0967 8.40922C59.0001 8.23639 58.9298 8.04973 58.8858 7.84922H64.5847C64.594 7.75589 64.6033 7.65789 64.6127 7.55522C64.622 7.44322 64.6267 7.34522 64.6267 7.26122C64.6267 6.44922 64.454 5.75389 64.1087 5.17522C63.7633 4.58722 63.292 4.13922 62.6947 3.83122C62.1067 3.51389 61.444 3.35522 60.7067 3.35522C59.9413 3.35522 59.2553 3.52322 58.6487 3.85922C58.042 4.18589 57.5613 4.64322 57.2067 5.23122C56.9672 5.63252 56.8107 6.07644 56.7373 6.56303C56.7049 6.77809 56.6887 7.0015 56.6887 7.23322C56.6887 7.46209 56.7053 7.68351 56.7386 7.89748ZM59.0687 5.94522C58.9663 6.13191 58.8969 6.34191 58.8606 6.57522H62.5697C62.5359 6.34866 62.4703 6.14272 62.3727 5.9574C62.3681 5.94863 62.3634 5.9399 62.3587 5.93122C62.2861 5.79889 62.2008 5.68022 62.1029 5.57522C61.9867 5.45065 61.8526 5.34532 61.7007 5.25922C61.4207 5.09122 61.094 5.00722 60.7207 5.00722C60.3473 5.00722 60.016 5.09122 59.7267 5.25922C59.5764 5.34438 59.4435 5.44972 59.3282 5.57522C59.2287 5.68353 59.1422 5.80686 59.0687 5.94522ZM64.4922 8.84922H65.3008V9.72598L64.4922 8.84922ZM73.0018 7.67169C72.9611 7.62235 72.9171 7.57519 72.8699 7.53023C72.8663 7.52681 72.8627 7.5234 72.8591 7.52001C72.8092 7.47336 72.7557 7.42909 72.6987 7.38722C72.5225 7.25503 72.3101 7.14885 72.0617 7.06867C72.1836 7.01023 72.298 6.94375 72.4047 6.86922C72.6199 6.71783 72.7891 6.54262 72.9124 6.34362C73.078 6.07641 73.1608 5.76628 73.1608 5.41322C73.1608 4.79722 72.8947 4.32122 72.3627 3.98522C71.8307 3.63989 71.0934 3.46722 70.1507 3.46722H66.3008V10.9992H70.3187C71.3548 10.9992 72.1247 10.8079 72.6287 10.4252C73.1328 10.0426 73.3848 9.51989 73.3848 8.85722C73.3848 8.37608 73.2571 7.98091 73.0018 7.67169ZM68.3027 7.84922V9.51522H70.1367C70.5381 9.51522 70.8367 9.44989 71.0327 9.31922C71.2381 9.17922 71.3408 8.96922 71.3408 8.68922C71.3408 8.55109 71.3195 8.43104 71.2769 8.32908C71.2304 8.21746 71.1583 8.1275 71.0607 8.05922C70.9156 7.95038 70.7056 7.88384 70.4307 7.85962C70.3521 7.85269 70.2681 7.84922 70.1787 7.84922H68.3027ZM71.0916 5.89525C71.099 5.84889 71.1027 5.80021 71.1027 5.74922C71.1027 5.47855 71.0047 5.27789 70.8087 5.14722C70.6221 5.01655 70.3374 4.95122 69.9548 4.95122H68.3027V6.56122H69.9548C70.1352 6.56122 70.2939 6.54565 70.4307 6.51452C70.5134 6.49573 70.588 6.47126 70.6547 6.44113C70.6989 6.42118 70.7396 6.39875 70.7768 6.37382C70.7878 6.3665 70.7984 6.35897 70.8087 6.35122C70.9665 6.23853 71.0608 6.08655 71.0916 5.89525ZM80.5468 8.71707C80.5775 8.68998 80.6078 8.66203 80.6377 8.63322L81.7997 9.89322C81.6507 10.0623 81.4853 10.2149 81.3033 10.351C81.2163 10.4161 81.1256 10.4773 81.0311 10.5348C80.865 10.636 80.6872 10.7254 80.4977 10.8032C79.9751 11.0086 79.3731 11.1112 78.6917 11.1112C77.8331 11.1112 77.0771 10.9432 76.4237 10.6072C75.7797 10.2712 75.2804 9.81389 74.9257 9.23522C74.5711 8.64722 74.3937 7.97989 74.3937 7.23322C74.3937 6.47722 74.5664 5.80989 74.9117 5.23122C75.2664 4.64322 75.7471 4.18589 76.3537 3.85922C76.9604 3.52322 77.6464 3.35522 78.4117 3.35522C79.1491 3.35522 79.8117 3.51389 80.3997 3.83122C80.9971 4.13922 81.4684 4.58722 81.8137 5.17522C82.1591 5.75389 82.3317 6.44922 82.3317 7.26122C82.3317 7.34522 82.3271 7.44322 82.3177 7.55522C82.3084 7.65789 82.2991 7.75589 82.2897 7.84922H76.5909C76.6349 8.04973 76.7052 8.23639 76.8017 8.40922C76.9031 8.57655 77.0252 8.72321 77.1679 8.84922C77.2879 8.95515 77.4225 9.04649 77.5717 9.12322C77.9077 9.28189 78.2997 9.36122 78.7477 9.36122C79.1491 9.36122 79.4991 9.30055 79.7977 9.17922C80.0063 9.09705 80.2021 8.98704 80.385 8.84922C80.4401 8.8077 80.494 8.76365 80.5468 8.71707ZM76.7737 5.94522C76.6714 6.13191 76.602 6.34191 76.5657 6.57522H80.2748C80.241 6.34866 80.1753 6.14272 80.0778 5.9574C80.0732 5.94863 80.0685 5.9399 80.0637 5.93122C79.9912 5.79889 79.9059 5.68022 79.808 5.57522C79.6917 5.45065 79.5577 5.34532 79.4057 5.25922C79.1257 5.09122 78.7991 5.00722 78.4257 5.00722C78.0524 5.00722 77.7211 5.09122 77.4317 5.25922C77.2814 5.34438 77.1486 5.44972 77.0333 5.57522C76.9337 5.68353 76.8472 5.80686 76.7737 5.94522ZM82.9855 10.9852C83.2001 11.0412 83.4008 11.0832 83.5875 11.1112C83.7741 11.1392 83.9515 11.1532 84.1195 11.1532C84.5861 11.1532 84.9688 11.0459 85.2675 10.8312C85.5661 10.6072 85.8041 10.2946 85.9815 9.89322C86.1588 9.48255 86.2848 8.99722 86.3595 8.43722C86.4435 7.87722 86.4995 7.26122 86.5275 6.58922L86.5964 5.25922H88.9775V10.9992H91.1615V3.46722H84.7215L84.6095 6.49122C84.5908 6.84589 84.5628 7.18655 84.5255 7.51322C84.4975 7.83989 84.4461 8.13389 84.3715 8.39522C84.2968 8.64722 84.1848 8.84789 84.0355 8.99722C83.9024 9.13028 83.7249 9.20406 83.5029 9.21856C83.4758 9.22033 83.4479 9.22122 83.4195 9.22122H83.2655L83.0975 9.19322L82.9855 10.9852ZM13.6692 3.85922C13.0532 4.18589 12.5632 4.64322 12.1992 5.23122C11.8445 5.80989 11.6672 6.47722 11.6672 7.23322C11.6672 7.97989 11.8445 8.64722 12.1992 9.23522C12.5632 9.81389 13.0532 10.2712 13.6692 10.6072C14.2945 10.9432 15.0085 11.1112 15.8112 11.1112C16.6045 11.1112 17.3138 10.9432 17.9392 10.6072C18.5645 10.2712 19.0545 9.81389 19.4092 9.23522C19.7638 8.64722 19.9412 7.97989 19.9412 7.23322C19.9412 6.46789 19.7638 5.79589 19.4092 5.21722C19.0545 4.63855 18.5645 4.18589 17.9392 3.85922C17.3138 3.52322 16.6045 3.35522 15.8112 3.35522C15.0085 3.35522 14.2945 3.52322 13.6692 3.85922ZM15.8112 8.31922C16.0148 8.31922 16.1655 8.27417 16.289 8.20243C16.4108 8.13171 16.512 8.03236 16.5962 7.87995C16.6729 7.73281 16.7292 7.5276 16.7292 7.23322C16.7292 6.92069 16.6695 6.72084 16.5993 6.59207C16.5144 6.4365 16.4123 6.33559 16.289 6.26401C16.1655 6.19227 16.0148 6.14722 15.8112 6.14722C15.6076 6.14722 15.4569 6.19227 15.3333 6.26401C15.2076 6.33697 15.0982 6.44153 15.004 6.60156C14.936 6.73058 14.8792 6.92826 14.8792 7.23322C14.8792 7.52113 14.933 7.72374 15.0071 7.87016C15.1006 8.02721 15.209 8.13027 15.3333 8.20243C15.4569 8.27417 15.6076 8.31922 15.8112 8.31922ZM14.1312 8.35322C13.9632 8.03589 13.8792 7.66255 13.8792 7.23322C13.8792 6.79455 13.9632 6.42122 14.1312 6.11322C14.3085 5.80522 14.5418 5.56722 14.8312 5.39922C15.1205 5.23122 15.4472 5.14722 15.8112 5.14722C16.1752 5.14722 16.5018 5.23122 16.7912 5.39922C17.0805 5.56722 17.3092 5.80522 17.4772 6.11322C17.6452 6.42122 17.7292 6.79455 17.7292 7.23322C17.7292 7.66255 17.6452 8.03589 17.4772 8.35322C17.3092 8.66122 17.0805 8.89922 16.7912 9.06722C16.5018 9.23522 16.1752 9.31922 15.8112 9.31922C15.4472 9.31922 15.1205 9.23522 14.8312 9.06722C14.5418 8.89922 14.3085 8.66122 14.1312 8.35322Z" fill="#152844" fill-opacity="0.7"/>
</svg>
