<svg width="19" height="17" viewBox="0 0 19 17" fill="none" xmlns="http://www.w3.org/2000/svg">
<path d="M18.2526 16.9396C17.6965 16.9396 17.1355 16.9396 16.5595 16.9396C15.0016 11.3238 13.4387 5.70202 11.8809 0.0862209C11.9059 0.0802018 11.9109 0.0741827 11.9159 0.0741827C12.497 0.0260301 12.497 0.0260301 12.7124 0.664052C14.5307 6.00297 16.3541 11.3359 18.1724 16.6748C18.1924 16.735 18.2275 16.7952 18.2526 16.8554C18.2526 16.8855 18.2526 16.9095 18.2526 16.9396Z" fill="#8C8C8C"/>
<path d="M10.0219 16.9278C10.0069 16.4643 9.98687 16.0189 9.97184 15.5434C9.82156 15.5434 9.68131 15.5434 9.54105 15.5434C9.1904 15.5434 8.83976 15.5554 8.48912 15.5373C8.31379 15.5313 8.26871 15.6036 8.27372 15.8022C8.28374 16.1693 8.27873 16.5425 8.27873 16.9278C6.58562 16.9278 4.93759 16.9278 3.26953 16.9278C4.50179 11.3059 5.72905 5.69616 6.96131 0.0803584C7.57744 0.0803584 8.18356 0.0803584 8.78967 0.0803584C8.78967 0.537808 8.78967 0.989239 8.78967 1.45873C9.01508 1.45873 9.24551 1.45873 9.48094 1.45873C9.48094 1.00128 9.48094 0.549846 9.48094 0.0743394C9.71637 0.0743394 9.95681 0.0743394 10.1973 0.0743394C10.5178 0.0743394 10.8384 0.0803584 11.159 0.0683203C11.2742 0.0623012 11.3193 0.116473 11.3494 0.248893C12.236 4.29973 13.1226 8.34455 14.0143 12.3954C14.3298 13.84 14.6454 15.2845 14.961 16.7291C14.976 16.7893 14.986 16.8555 15.0011 16.9278C13.333 16.9278 11.685 16.9278 10.0219 16.9278ZM8.48411 9.57244C8.43902 10.8605 8.39895 12.1366 8.35387 13.4186C8.87983 13.4186 9.38576 13.4186 9.90171 13.4186C9.85663 12.1245 9.81656 10.8485 9.77147 9.57244C9.33066 9.57244 8.9149 9.57244 8.48411 9.57244ZM8.68448 3.58346C8.63939 4.87756 8.59932 6.15963 8.55424 7.43567C8.94996 7.43567 9.31563 7.43567 9.70134 7.43567C9.65626 6.14759 9.61619 4.87154 9.5711 3.58346C9.26554 3.58346 8.99004 3.58346 8.68448 3.58346Z" fill="#8C8C8C"/>
<path d="M0 16.9394C0.330607 15.9643 0.651196 15.0254 0.971785 14.0804C2.53966 9.48781 4.10754 4.89526 5.67041 0.296685C5.73553 0.110094 5.80566 0.0438839 5.96596 0.0619411C6.0962 0.0799984 6.22643 0.0679602 6.38172 0.0679602C6.3166 0.302704 6.2615 0.52541 6.20139 0.742097C4.71867 6.075 3.23594 11.4079 1.75823 16.7408C1.71315 16.9033 1.65804 16.9454 1.5228 16.9394C1.02188 16.9334 0.525966 16.9394 0 16.9394Z" fill="#8C8C8C"/>
</svg>
