<svg width="14" height="12" viewBox="0 0 14 12" fill="none" xmlns="http://www.w3.org/2000/svg">
<path d="M13.638 0.775356C13.5899 0.637492 13.5324 0.59889 13.4436 0.565802C13.2491 0.492275 12.9195 0.602566 12.9195 0.602566C12.9195 0.602566 1.23615 4.76974 0.569485 5.23296C0.425041 5.33222 0.376892 5.3892 0.35467 5.45722C0.239855 5.78625 0.599115 5.93147 0.599115 5.93147L3.61023 6.90571C3.61023 6.90571 3.72319 6.92225 3.76208 6.89652C4.44726 6.46638 10.6547 2.57678 11.0121 2.44627C11.0695 2.42972 11.1102 2.44811 11.0991 2.48671C10.9565 2.98669 5.56578 7.74208 5.56578 7.74208C5.56578 7.74208 5.54541 7.76782 5.53245 7.79723L5.52504 7.79355L5.24356 10.7585C5.24356 10.7585 5.12504 11.6666 6.04171 10.7585C6.688 10.117 7.31208 9.58211 7.62504 9.32108C8.66022 10.0306 9.77504 10.8155 10.2547 11.2254C10.4954 11.4313 10.6991 11.4644 10.8639 11.4589C11.3195 11.4424 11.4473 10.9442 11.4473 10.9442C11.4473 10.9442 13.5769 2.43891 13.6473 1.29924C13.6547 1.18711 13.6639 1.11726 13.6639 1.04005C13.6658 0.93344 13.6547 0.824987 13.638 0.775356Z" fill="rgba(255, 255, 255, 0.6)"/>
</svg>
