<svg width="18" height="11" viewBox="0 0 18 11" fill="none" xmlns="http://www.w3.org/2000/svg">
<path d="M17.9045 9.77475C17.8827 9.72777 17.8624 9.68881 17.8435 9.65759C17.5312 9.09513 16.9345 8.40476 16.0535 7.58626L16.0349 7.56752L16.0256 7.55832L16.0162 7.5489H16.0067C15.6069 7.16777 15.3537 6.9115 15.2477 6.7803C15.0537 6.53037 15.0102 6.27739 15.1163 6.02105C15.1912 5.82739 15.4726 5.41838 15.9597 4.79349C16.216 4.46232 16.419 4.19689 16.5688 3.99692C17.6498 2.55983 18.1185 1.64152 17.9747 1.24161L17.9188 1.14815C17.8813 1.09189 17.7845 1.04042 17.6285 0.993482C17.4721 0.94664 17.2722 0.938894 17.0285 0.97011L14.3295 0.988755C14.2858 0.973261 14.2233 0.974706 14.142 0.993482C14.0607 1.01226 14.0201 1.02168 14.0201 1.02168L13.9731 1.04515L13.9358 1.07335C13.9046 1.09199 13.8702 1.12478 13.8327 1.17166C13.7954 1.21837 13.7642 1.27318 13.7392 1.33565C13.4454 2.09165 13.1113 2.79453 12.7363 3.44428C12.5051 3.83171 12.2928 4.16748 12.0989 4.45178C11.9053 4.73598 11.7428 4.94537 11.6117 5.0796C11.4804 5.21395 11.3619 5.32158 11.2555 5.40289C11.1492 5.48423 11.0681 5.5186 11.012 5.50603C10.9557 5.49345 10.9027 5.48098 10.8525 5.46851C10.7651 5.41225 10.6947 5.33573 10.6417 5.2389C10.5885 5.14206 10.5526 5.02018 10.5339 4.87335C10.5153 4.72643 10.5042 4.60005 10.5011 4.4938C10.4982 4.38767 10.4995 4.23756 10.5058 4.04389C10.5123 3.85013 10.5153 3.71902 10.5153 3.65029C10.5153 3.41283 10.5199 3.15512 10.5292 2.87709C10.5386 2.59906 10.5463 2.37877 10.5527 2.21648C10.559 2.05403 10.562 1.88216 10.562 1.70096C10.562 1.51977 10.551 1.37767 10.5292 1.27453C10.5076 1.17153 10.4746 1.07154 10.431 0.974607C10.3872 0.877773 10.3231 0.802866 10.2389 0.749689C10.1546 0.696578 10.0497 0.65443 9.92496 0.623115C9.59379 0.548175 9.17208 0.507636 8.65965 0.501333C7.4976 0.48886 6.75093 0.563898 6.41979 0.72635C6.28859 0.794988 6.16986 0.888769 6.0637 1.0074C5.95121 1.1449 5.93552 1.21994 6.01673 1.23229C6.39166 1.28845 6.65708 1.4228 6.8133 1.63521L6.86959 1.74777C6.91338 1.82898 6.9571 1.97276 7.00086 2.1789C7.04455 2.38504 7.07275 2.61308 7.08516 2.86288C7.11634 3.31905 7.11634 3.70954 7.08516 4.03438C7.05387 4.35934 7.02433 4.61233 6.99613 4.79352C6.96794 4.97472 6.92579 5.12155 6.86959 5.23397C6.8133 5.34643 6.77584 5.41517 6.75707 5.44011C6.73832 5.46506 6.7227 5.48078 6.71029 5.48696C6.62908 5.51807 6.54462 5.53393 6.45721 5.53393C6.36966 5.53393 6.26351 5.49014 6.13857 5.40263C6.01367 5.31512 5.88405 5.19491 5.74969 5.04181C5.61534 4.88868 5.46382 4.6747 5.29507 4.39982C5.12644 4.12494 4.95148 3.80007 4.77029 3.42521L4.62038 3.15335C4.52666 2.97845 4.39864 2.7238 4.23619 2.3896C4.07364 2.05528 3.92996 1.73188 3.80506 1.41949C3.75514 1.28828 3.68013 1.1884 3.58018 1.11966L3.53327 1.09146C3.50209 1.06652 3.45203 1.04003 3.38336 1.0118C3.31459 0.983601 3.24283 0.963381 3.1678 0.95094L0.599913 0.969585C0.337509 0.969585 0.159465 1.02903 0.0657161 1.14776L0.0281968 1.20392C0.00945366 1.23521 0 1.28517 0 1.35394C0 1.42267 0.0187432 1.50703 0.0562624 1.60692C0.431126 2.48795 0.838782 3.33763 1.27923 4.15609C1.71968 4.97455 2.10242 5.63385 2.42723 6.13338C2.7521 6.63328 3.08324 7.10507 3.42065 7.54854C3.75806 7.99217 3.9814 8.27647 4.09068 8.40137C4.20008 8.5265 4.28602 8.62005 4.34849 8.68252L4.58282 8.90741C4.73277 9.05739 4.95296 9.237 5.2435 9.44627C5.5341 9.65566 5.85582 9.8618 6.20882 10.065C6.56189 10.2679 6.97263 10.4335 7.44128 10.5615C7.90986 10.6897 8.36593 10.7412 8.80956 10.7163H9.88734C10.1059 10.6975 10.2715 10.6287 10.3841 10.5101L10.4214 10.4631C10.4465 10.4258 10.4699 10.3679 10.4916 10.2899C10.5135 10.2118 10.5244 10.1258 10.5244 10.0322C10.518 9.76362 10.5385 9.52153 10.5852 9.306C10.6319 9.09054 10.6852 8.92809 10.7447 8.81868C10.8042 8.70937 10.8714 8.61713 10.9461 8.54236C11.021 8.46742 11.0744 8.42202 11.1057 8.4064C11.1368 8.39067 11.1617 8.38 11.1804 8.3736C11.3304 8.32364 11.5068 8.37203 11.7101 8.51899C11.9132 8.66581 12.1037 8.84711 12.2818 9.06257C12.4599 9.27823 12.6739 9.52019 12.9237 9.7888C13.1738 10.0575 13.3924 10.2572 13.5798 10.3886L13.7671 10.5011C13.8922 10.5761 14.0547 10.6449 14.2547 10.7073C14.4543 10.7698 14.6292 10.7854 14.7793 10.7542L17.1784 10.7168C17.4157 10.7168 17.6004 10.6775 17.7314 10.5995C17.8626 10.5214 17.9405 10.4354 17.9657 10.3418C17.9908 10.2481 17.9921 10.1418 17.9704 10.023C17.9482 9.90447 17.9263 9.82159 17.9045 9.77475Z" fill="rgba(255, 255, 255, 0.6)"/>
</svg>
